<?xml version="1.0" encoding="UTF-8" standalone="no"?>
<!-- Created with Inkscape (http://www.inkscape.org/) -->

<svg
   xmlns:dc="http://purl.org/dc/elements/1.1/"
   xmlns:cc="http://creativecommons.org/ns#"
   xmlns:rdf="http://www.w3.org/1999/02/22-rdf-syntax-ns#"
   xmlns:svg="http://www.w3.org/2000/svg"
   xmlns="http://www.w3.org/2000/svg"
   xmlns:sodipodi="http://sodipodi.sourceforge.net/DTD/sodipodi-0.dtd"
   xmlns:inkscape="http://www.inkscape.org/namespaces/inkscape"
   width="210mm"
   height="297mm"
   viewBox="0 0 744.09448819 1052.3622047"
   id="svg2"
   version="1.1"
   inkscape:version="0.91 r13725"
   sodipodi:docname="humphreys.svg">
  <defs
     id="defs4" />
  <sodipodi:namedview
     id="base"
     pagecolor="#9c3030"
     bordercolor="#666666"
     borderopacity="1.0"
     inkscape:pageopacity="0"
     inkscape:pageshadow="2"
     inkscape:zoom="0.66608906"
     inkscape:cx="1137.1205"
     inkscape:cy="155.29543"
     inkscape:document-units="px"
     inkscape:current-layer="layer1"
     showgrid="false"
     inkscape:window-width="2880"
     inkscape:window-height="1551"
     inkscape:window-x="0"
     inkscape:window-y="40"
     inkscape:window-maximized="1" />
  <metadata
     id="metadata7">
    <rdf:RDF>
      <cc:Work
         rdf:about="">
        <dc:format>image/svg+xml</dc:format>
        <dc:type
           rdf:resource="http://purl.org/dc/dcmitype/StillImage" />
        <dc:title></dc:title>
      </cc:Work>
    </rdf:RDF>
  </metadata>
  <g
     inkscape:label="Ebene 1"
     inkscape:groupmode="layer"
     id="layer1">
    <g
       id="g4270"
       style="font-style:normal;font-variant:normal;font-weight:normal;font-stretch:condensed;font-size:70px;line-height:125%;font-family:'Bernhard BdCn BT';-inkscape-font-specification:'Bernhard BdCn BT Condensed';letter-spacing:0px;word-spacing:0px;fill:#ffffff;fill-opacity:1;stroke:none;stroke-width:1px;stroke-linecap:butt;stroke-linejoin:miter;stroke-opacity:1"
       transform="matrix(1.2109847,0,0,1.2109847,-221.32734,-383.77028)"
       inkscape:export-xdpi="90"
       inkscape:export-ydpi="90">
      <path
         id="path4272"
         style="fill:#ffffff"
         d="m 377.52481,501.4392 q -3.15584,1.91498 -5.9016,3.78101 -0.42058,0.29519 -0.50824,0.34839 -0.78896,0.47874 -1.12912,0.44527 -0.35788,-0.0627 -0.85436,-0.88088 -0.35462,-0.58442 -0.13533,-1.27721 0.23079,-0.73974 -0.46073,-1.87935 -0.0355,-0.0584 -0.25973,-0.36214 -0.88032,-1.38486 -1.73142,-2.78746 -1.9859,-3.27273 -4.70304,-7.42108 -2.68791,-4.16609 -3.25531,-5.10116 -0.60287,-0.9935 -1.49567,-2.53071 -0.89281,-1.53721 -1.2297,-2.09241 l -2.25187,-3.71104 q -0.74471,-1.22727 -2.71388,-4.67007 -1.95767,-3.48976 -3.26978,-5.6521 -0.51421,-0.8474 -1.44077,-0.92484 -0.91506,-0.1244 -1.447,-1.00102 -0.53194,-0.87663 -0.20626,-1.39409 0.30795,-0.54669 2.00276,-1.5751 0.29221,-0.17731 1.39111,-0.80415 1.0989,-0.62684 1.85864,-1.08785 0.0292,-0.0177 0.51448,-0.27221 0.51449,-0.27221 0.9528,-0.53818 1.63636,-0.99295 3.27797,-2.10902 0.36214,-0.25973 0.42058,-0.29519 0.61364,-0.37236 1.11337,-0.0759 0.48201,0.26724 1.13806,1.34841 0.0177,0.0292 -0.27149,0.80443 -0.26001,0.75747 0.78614,2.4815 1.77312,2.92207 3.74555,5.84316 0.48399,0.66583 0.55491,0.78272 0.76245,1.25649 1.4612,2.67157 0.15958,0.26299 0.21278,0.35065 0.8511,1.4026 1.55013,1.69806 0.72825,0.27774 1.72176,-0.32512 1.19805,-0.72698 1.15237,-1.65879 -0.0165,-0.94954 -1.75412,-3.81317 0,0 -0.6196,-0.82343 -0.60811,-0.87038 -1.12232,-1.71778 -0.0709,-0.11689 -0.3786,-0.68981 -0.30767,-0.57293 -0.57364,-1.01124 -0.10639,-0.17533 -0.63208,-0.97578 -0.5257,-0.80045 -0.91578,-1.4433 l -0.44329,-0.73052 q -0.65605,-1.08117 -1.07437,-1.507 -0.43604,-0.45505 -0.90556,-0.56994 -0.14086,-0.0345 -0.44555,-0.01 -0.77946,0.0332 -1.11635,-0.522 -0.51421,-0.84741 -0.41705,-1.34615 0.12639,-0.51647 1.00301,-1.04841 0.49675,-0.30143 1.85339,-0.96472 1.38586,-0.68102 2.20405,-1.1775 0.9935,-0.60286 2.6466,-1.76589 1.68232,-1.18076 2.41284,-1.62404 1.05195,-0.63832 1.58615,-0.48272 0.56343,0.13788 1.23722,1.24827 0.0709,0.11688 -0.13064,0.83889 -0.19008,0.67506 0.27094,1.4348 0.0177,0.0292 0.1888,0.24526 1.10983,1.56543 2.2801,3.494 0.21277,0.35065 0.703,1.09266 0.47251,0.71279 0.73847,1.1511 0.65606,1.08117 2.46366,3.86239 1.80759,2.78122 2.87147,4.53447 l 2.18094,3.59415 q 0.78018,1.28572 1.93795,3.06194 1.15778,1.77623 1.47695,2.3022 1.47169,2.42533 3.54724,6.04346 2.05782,3.5889 2.73161,4.69929 0.86883,1.43182 1.67226,1.50402 0.83266,0.0545 1.22274,0.69732 0.47875,0.78896 0.37009,1.33465 -0.0794,0.52797 -0.72228,0.91805 -0.0584,0.0355 -0.98826,0.47974 -0.9006,0.42655 -1.77722,0.95848 l -2.74676,1.66674 q -1.87012,1.1348 -3.6516,2.41571 -0.33292,0.24199 -0.42058,0.29519 -0.7013,0.42555 -1.35238,0.34087 -0.62187,-0.10242 -0.95876,-0.65761 -0.21278,-0.35065 0.0807,-1.44828 0.30497,-1.14458 -0.45747,-2.40107 -0.44328,-0.73052 -1.14005,-1.74701 -0.69677,-1.01648 -0.90954,-1.36713 -0.17732,-0.29221 -0.946,-1.62487 -0.76869,-1.33267 -1.38928,-2.3554 -0.42555,-0.7013 -1.79611,-2.82817 -1.38828,-2.1561 -2.27485,-3.61713 -2.03909,-3.36039 -3.00934,-3.97105 -0.95876,-0.6576 -2.09837,0.0339 -0.87662,0.53194 -0.87789,1.45226 0.0102,0.87336 0.91451,2.36362 0.40782,0.67208 0.98671,1.56019 0.57889,0.88811 0.73847,1.1511 0.42555,0.7013 1.30062,2.20929 0.87507,1.50799 1.37155,2.32617 0.31916,0.52598 0.82713,1.29721 0.49023,0.742 0.59662,0.91733 0.24824,0.40909 0.78641,1.36189 0.52045,0.92357 0.87508,1.50799 0.31916,0.52597 1.0399,1.64785 0.70301,1.09266 1.0399,1.64785 1.01068,1.66559 1.84958,1.79622 0.85038,0.0837 1.15182,0.58044 0.5142,0.84741 0.38782,1.36388 -0.0972,0.49874 -0.85691,0.95975 -0.0584,0.0355 -0.36838,0.18356 -1.43281,0.66953 -2.86463,1.53836 z"
         inkscape:connector-curvature="0" />
      <path
         id="path4274"
         style="fill:#ffffff"
         d="m 404.2285,487.26886 q -4.04961,1.65567 -6.94369,-0.81677 -2.86244,-2.48537 -7.82947,-14.63421 l -0.50446,-1.23387 q -0.53033,-1.29714 -1.43858,-3.87988 -0.90825,-2.58275 -1.39978,-3.78498 l -1.591,-3.89143 q -0.0259,-0.0633 -0.0977,-0.32931 -0.34348,-0.93042 -0.69272,-1.78464 -0.36218,-0.88585 -1.18319,-1.17792 -0.78937,-0.30501 -0.85404,-0.4632 -0.5174,-1.26551 -0.14195,-1.9729 0.40709,-0.72033 1.89406,-1.32827 0.28473,-0.11642 0.98793,-0.29314 0.70319,-0.17672 1.11448,-0.34487 0.60112,-0.24577 1.79618,-0.84514 1.19506,-0.59938 1.82781,-0.85808 1.10732,-0.45272 2.31498,0.60442 1.23929,1.04421 2.14474,3.25884 0.28457,0.69603 0.5389,1.58905 0.28597,0.88008 0.36358,1.06991 0.2587,0.63275 0.82067,1.91696 0.56197,1.28421 0.8336,1.9486 0.2587,0.63275 1.23599,3.11341 0.97729,2.48067 1.71459,4.28402 1.0736,2.62592 2.3844,5.56105 1.3295,2.89055 1.47178,3.23857 1.34524,3.29031 2.13741,3.96343 0.77924,0.64149 1.88655,0.18877 0.79094,-0.32338 1.09019,-1.03654 0.2863,-0.7448 -0.05,-1.56737 -0.0388,-0.0949 -0.28317,-0.51197 -1.95351,-3.1524 -3.53158,-7.01218 -0.31044,-0.75931 -0.87521,-2.41163 -0.57771,-1.68396 -0.93988,-2.56981 -0.37512,-0.91749 -1.22166,-2.89773 -0.85947,-2.01187 -1.3122,-3.11918 -0.46566,-1.13896 -1.14684,-3.07602 -0.68119,-1.93706 -0.96576,-2.63309 -0.49152,-1.20223 -1.07657,-2.18159 -0.56634,-1.02394 -0.71299,-1.11169 -0.0891,-0.0374 -0.66002,0.0114 -0.55217,0.004 -0.88848,-0.81838 -0.41392,-1.0124 0.0262,-1.56161 0.45882,-0.59377 2.19889,-1.3052 0.41129,-0.16815 1.2094,-0.38368 0.82974,-0.22846 1.20939,-0.38368 0.53784,-0.21989 1.38489,-0.67699 0.84705,-0.45709 1.25834,-0.62524 1.92989,-0.78903 2.78971,-0.40205 0.87851,0.34242 1.5382,1.95594 0.34924,0.85421 0.86227,2.37998 0.5001,1.49414 0.7588,2.12689 0.2975,0.72766 0.90264,1.84652 0.59221,1.08721 0.74743,1.46686 0.34925,0.85422 0.97432,2.92499 0.61215,2.03914 1.09074,3.20974 0.36218,0.88585 1.19298,2.46633 0.83081,1.58048 1.10245,2.24487 0.36217,0.88585 0.80476,2.32965 0.42966,1.41215 0.63662,1.91835 0.34924,0.85422 1.27059,2.65616 0.90842,1.77031 1.32233,2.78271 0.18109,0.44293 0.48717,1.4625 0.29313,0.98793 0.48716,1.4625 0.2587,0.63275 1.11134,0.91189 0.87135,0.23457 1.06538,0.70913 0.2975,0.72766 0.16081,1.11588 -0.10504,0.37529 -0.80107,0.65985 -0.28474,0.11642 -1.38629,0.49293 -1.10155,0.37652 -1.89249,0.69989 -0.56947,0.23283 -1.84075,0.82644 -1.23963,0.58067 -1.93566,0.86524 -1.13895,0.46566 -2.45882,-0.32405 -1.28824,-0.80264 -2.04754,-0.4922 -0.5062,0.20696 -1.55915,1.96679 -1.02131,1.74689 -2.88793,2.51006 z"
         inkscape:connector-curvature="0" />
      <path
         id="path4276"
         style="fill:#ffffff"
         d="m 427.04272,442.56395 q -0.97083,0.2 -1.37643,0.77212 -0.37212,0.56523 -0.18592,1.4691 0.0138,0.067 0.38218,1.17757 0.36839,1.11063 0.59597,2.21536 0.13104,0.63605 0.38233,2.36406 0.25129,1.728 0.47198,2.79925 0.19999,0.97083 0.66005,2.86521 0.46005,1.89437 0.64625,2.79825 0.12414,0.60258 0.29856,1.78805 0.16753,1.152 0.29167,1.75459 0.0345,0.16738 0.24626,0.8566 0.20488,0.65574 0.30833,1.15789 0.0759,0.36824 0.17543,1.35976 0.0996,0.99151 0.2306,1.62757 0.0965,0.46867 0.37729,1.49266 0.27385,0.9905 0.39109,1.55961 0.42069,2.04208 0.74669,2.77756 0.35948,0.72858 0.89712,0.9668 0.15459,0.0728 0.41652,0.15848 0.89309,0.26968 1.0655,1.10659 0.15173,0.73649 -0.0875,1.09985 -0.24611,0.32988 -1.21694,0.52988 -0.53563,0.11034 -2.43101,0.39612 -1.89538,0.28577 -3.1675,0.54784 -1.33907,0.27585 -3.02569,0.72801 -1.65315,0.44525 -2.02139,0.52111 -0.66953,0.13793 -0.98663,-0.21551 -0.29051,-0.39382 -0.52499,-1.53203 -0.0552,-0.26781 0.36321,-0.94726 0.45187,-0.68635 0.31394,-1.35588 -0.0759,-0.36824 -0.24727,-1.03088 -0.17141,-0.66264 -0.24037,-0.99741 -0.10345,-0.50215 -0.4227,-2.39063 -0.31925,-1.88849 -0.602,-3.26104 -0.31035,-1.50645 -0.9635,-4.33818 -0.66005,-2.8652 -0.93591,-4.20427 -0.20689,-1.0043 -0.51336,-3.00011 -0.30646,-1.99582 -0.49956,-2.93317 -0.16551,-0.80344 -0.47485,-2.13561 -0.31623,-1.36565 -0.42658,-1.90127 -0.15172,-0.73649 -0.4158,-2.35717 -0.27097,-1.65415 -0.45718,-2.55802 -0.26896,-1.30559 -0.99568,-1.78403 -0.70013,-0.51882 -0.82427,-1.1214 -0.17931,-0.8704 0.0264,-1.22686 0.23232,-0.39683 0.96881,-0.54856 0.70301,-0.14482 2.04309,-0.2464 1.34007,-0.10158 1.94265,-0.22572 0.53563,-0.11034 1.40502,-0.46393 0.90286,-0.36048 1.33806,-0.45014 1.77426,-0.36551 2.55127,0.69583 0.0945,0.12011 0.14181,0.18017 0.47959,0.63405 0.89611,0.79252 0.44999,0.15158 1.11953,0.0136 0.80344,-0.16551 2.31564,-1.80314 1.54567,-1.64453 3.5208,-2.05142 2.14251,-0.44137 4.60225,0.65718 2.45975,1.09855 2.9619,0.99511 0.76997,-0.15862 2.69567,-2.16062 1.9257,-2.00199 3.86735,-2.40198 3.98373,-0.82068 6.00741,1.37973 2.02369,2.20041 3.85815,11.10521 0.37931,1.84122 0.72816,4.21217 0.34195,2.33748 0.4316,2.77268 0.22069,1.07125 0.61767,2.49006 0.39008,1.38533 0.45904,1.7201 0.95861,4.65326 1.64151,9.15394 0.12514,0.77686 0.15273,0.91077 0.17241,0.83692 0.89424,1.63044 0.74841,0.75316 0.90014,1.48964 0.13103,0.63606 -0.13477,1.03979 -0.23233,0.39684 -0.83491,0.52098 -0.53563,0.11034 -1.89538,0.28577 -1.32628,0.16853 -2.12972,0.33405 -0.63606,0.13103 -1.5862,0.43146 -0.91666,0.29353 -1.25142,0.36249 -2.20946,0.45517 -2.97167,-0.36494 -0.76221,-0.8201 -1.70702,-5.40641 l -0.43448,-2.10903 q -0.4,-1.94165 -0.85818,-4.67396 -0.46508,-2.76577 -0.6237,-3.53574 -0.25517,-1.23864 -0.95071,-4.4455 -0.69554,-3.20687 -1.08864,-5.11504 -0.12414,-0.60258 -0.46594,-1.75358 -0.34181,-1.15099 -0.47284,-1.78705 -0.11724,-0.5691 -0.28376,-1.54683 -0.16652,-0.97772 -0.24239,-1.34596 -0.17241,-0.83692 -0.81148,-1.22872 -0.6056,-0.39871 -1.44252,-0.2263 -0.90387,0.18621 -1.24151,0.91882 -0.33764,0.7326 -0.0756,2.00472 0.1931,0.93735 0.65013,2.30889 0.45704,1.37154 0.5398,1.77326 0.069,0.33476 0.26307,1.44639 0.61393,4.16591 1.36564,7.81487 0.7931,3.84982 1.53404,7.95467 0.17342,1.0112 0.22169,1.24553 0.0621,0.30129 0.33003,1.43261 0.26796,1.13131 0.44726,2.0017 0.0621,0.30129 0.14684,1.05157 0.0779,0.71681 0.16753,1.152 0.11724,0.56911 1.02413,0.90574 0.94036,0.32974 1.01622,0.69798 0.23448,1.13821 -0.0776,1.65617 -0.28549,0.47758 -1.49065,0.72585 -0.53563,0.11034 -2.23015,0.35474 -1.69453,0.24439 -2.83273,0.47887 -1.00431,0.2069 -2.0076,0.58807 -0.22744,0.0817 -0.26092,0.0887 -1.67383,0.34482 -2.60946,-1.48648 -0.94252,-1.86478 -2.77698,-10.76959 l -0.31034,-1.50645 -0.64827,-3.14681 q -0.1931,-0.93734 -0.5783,-2.63776 -0.39209,-1.73389 -0.55071,-2.50386 -0.31724,-1.53992 -0.71336,-3.97094 -0.40301,-2.46449 -0.58232,-3.33488 -0.62758,-3.04638 -1.2145,-3.69321 -0.55344,-0.65373 -1.62469,-0.43305 z"
         inkscape:connector-curvature="0" />
      <path
         id="path4278"
         style="fill:#ffffff"
         d="m 473.21692,464.56495 q 0.0246,1.23022 0.37724,1.77016 0.38683,0.53925 1.20698,0.52286 1.43526,-0.0287 1.99437,-2.84315 0.55911,-2.81447 0.42593,-9.47818 -0.22811,-11.41374 -0.83771,-14.54671 -0.6096,-3.13298 -2.18155,-3.10156 -0.54676,0.0109 -0.98213,0.46405 -0.40188,0.41827 -0.39095,0.96504 0.005,0.23921 0.0847,0.81878 0.11345,0.54472 0.1196,0.85227 0.008,0.41008 -0.0629,1.98408 -0.0376,1.53914 -0.0144,2.70102 0.0102,0.51259 0.084,2.49393 0.0731,1.94717 0.10246,3.41661 0.0307,1.53778 -0.0247,3.89775 -0.0561,2.32581 -0.041,3.07761 0.0205,1.02519 0.15306,2.52674 0.13188,1.46739 0.14008,1.87746 0.004,0.20504 -0.0813,1.06141 -0.0854,0.85637 -0.0718,1.53983 z m 0.20693,10.35437 q 0.0376,1.87951 0.34988,3.8219 0.11481,0.61306 0.11686,0.71558 0.0191,0.95684 -0.48186,1.54803 -0.46681,0.5905 -1.25279,0.6062 -0.78597,0.0157 -2.46386,-0.12169 -1.64371,-0.13808 -2.49803,-0.12101 -0.85432,0.0171 -2.1153,0.21321 -1.22681,0.19545 -1.60271,0.20297 -0.85432,0.0171 -1.16803,-0.28434 -0.31302,-0.26724 -0.32804,-1.01904 -0.015,-0.7518 0.58506,-1.5159 0.63494,-0.7306 0.60489,-2.23421 l -0.0936,-4.68168 q -0.0157,-0.78598 -0.1674,-3.24438 -0.1517,-2.45839 -0.18448,-4.09869 -0.0198,-0.99101 10e-4,-3.35031 0.0212,-2.35929 -0.006,-3.7262 -0.0123,-0.61512 -0.11615,-2.39074 -0.10386,-1.77562 -0.1264,-2.90333 -0.0246,-1.23022 -0.0232,-2.8712 7e-4,-1.67515 -0.008,-2.1194 -0.043,-2.15289 -0.12637,-4.61265 -0.0833,-2.45977 -0.0902,-2.8015 l -0.0546,-2.73383 q -0.005,-0.23921 0.0506,-0.88986 0.0547,-0.68482 0.0472,-1.06072 -0.0143,-0.71763 -0.77434,-1.11268 -0.72651,-0.4299 -0.74017,-1.11336 -0.0157,-0.78598 0.45452,-1.20561 0.5044,-0.42032 1.49541,-0.44013 0.3759,-0.008 1.53915,0.0376 1.19741,0.0445 1.94921,0.0294 0.47842,-0.01 1.26303,-0.0936 0.78461,-0.0841 1.12634,-0.0909 2.32376,-0.0464 2.96346,1.17149 0.67387,1.21725 1.42567,1.20222 0.0684,-0.001 1.50705,-1.56851 1.4387,-1.56715 3.72828,-1.6129 4.98924,-0.0997 7.62457,5.18071 2.66951,5.27975 2.87713,15.6683 0.19327,9.67092 -2.16268,14.94854 -2.35664,5.24345 -6.86745,5.3336 -1.6403,0.0328 -3.1644,-0.96236 -1.4906,-1.02999 -1.79816,-1.02384 -0.78597,0.0157 -1.07782,0.80783 -0.29253,0.75795 -0.23516,3.62847 l 0.0178,0.88849 z"
         inkscape:connector-curvature="0" />
      <path
         id="path4280"
         style="fill:#ffffff"
         d="m 497.15761,472.10125 q -2.57782,-0.32038 -5.55404,-0.48362 -0.89032,-0.0418 -1.09383,-0.0671 -0.67838,-0.0843 -0.94571,-0.42752 -0.23341,-0.33899 -0.13645,-1.11912 0.0717,-0.57662 0.73681,-1.21725 0.70328,-0.67033 0.76229,-1.14519 0.0379,-0.30527 0.046,-0.92424 0.008,-0.61897 0.0418,-0.89032 0.0843,-0.67837 0.30391,-1.89101 0.2196,-1.21265 0.28705,-1.75535 0.0337,-0.27135 0.14735,-1.46272 0.64744,-7.70357 1.64652,-15.74231 0.14333,-1.15324 0.56949,-4.0279 0.43037,-2.90858 0.6538,-4.70627 0.14754,-1.18716 0.33704,-2.98906 0.18951,-1.80191 0.2696,-2.44637 0.21921,-1.76377 0.54439,-3.54882 0.0887,-0.43673 0.10137,-0.53848 0.17284,-1.39067 -0.36604,-2.04317 -0.50074,-0.6822 -0.48387,-0.81787 0.15176,-1.22108 0.54996,-1.65379 0.40242,-0.46662 1.31823,-0.3528 0.61053,0.0759 1.71721,0.31675 1.10667,0.24087 1.61545,0.3041 0.64445,0.0801 2.14952,0.16382 1.50508,0.0837 2.31912,0.1849 1.18716,0.14755 1.4888,1.0461 0.30585,0.86464 -0.13257,4.39218 -0.0927,0.74622 -0.32096,1.75113 -0.22822,1.00492 -0.26195,1.27627 -0.0548,0.44094 -0.0458,1.1998 0.009,0.75886 -0.0289,1.06413 -0.0169,0.13567 -0.0803,0.36889 -0.0634,0.23321 -0.0719,0.30105 -0.0801,0.64446 0.0345,0.83091 0.14852,0.19067 0.62338,0.24969 0.23743,0.0295 2.55558,-1.16342 2.31815,-1.19292 4.18368,-0.96107 3.93457,0.489 5.34826,3.2479 1.45182,2.72919 0.71411,8.66497 -0.23607,1.89945 -0.7088,4.87165 -0.47272,2.9722 -0.60762,4.0576 -0.1349,1.0854 -0.32421,3.16288 -0.18931,2.07747 -0.30734,3.0272 -0.0675,0.5427 -0.30391,1.89101 -0.23224,1.3144 -0.33342,2.12845 -0.10117,0.81405 -0.22725,2.38274 -0.12186,1.53478 -0.2146,2.28099 -0.0337,0.27135 -0.18166,0.90737 -0.14793,0.63603 -0.18587,0.9413 -0.10117,0.81405 0.46299,1.26303 0.59809,0.4532 0.50535,1.19942 -0.0843,0.67837 -0.30871,1.09824 -0.18626,0.39016 -0.42369,0.36065 -0.13568,-0.0169 -0.742,-0.12666 -2.75183,-0.5831 -5.43141,-0.91613 -1.52634,-0.1897 -3.01435,-0.13354 -0.24165,0.004 -0.27557,2e-4 -0.98364,-0.12225 -1.0494,-3.19582 -0.0615,-3.10749 0.78999,-9.95907 0.17284,-1.39067 0.44704,-3.31982 0.27842,-1.96308 0.3543,-2.57361 0.11804,-0.94973 0.62449,-4.19328 0.51066,-3.27747 0.79732,-5.58394 0.34145,-2.74742 -0.21927,-4.33259 -0.55652,-1.61908 -1.91327,-1.7877 -0.64445,-0.0801 -1.11049,0.34418 -0.46605,0.42427 -0.563,1.2044 -0.008,0.0678 0.14488,1.05129 0.15332,0.98345 0.0437,1.86534 -0.0337,0.27135 -0.21116,1.1448 -0.17323,0.83954 -0.25333,1.484 -0.0548,0.44094 -0.10941,1.15745 -0.0546,0.71651 -0.0925,1.02178 -0.0885,0.71229 -0.33342,2.12844 -0.24067,1.38224 -0.3292,2.09453 -0.11382,0.91581 -0.23127,2.69223 -0.11324,1.7425 -0.21863,2.59047 -0.1096,0.88189 -0.47253,3.24777 -0.3587,2.33196 -0.54419,3.82438 -0.22342,1.7977 -0.24333,3.62068 0.0182,1.79329 0.10733,1.90769 0.0977,0.32213 0.67033,0.70328 0.57681,0.34723 0.47564,1.16128 -0.11401,0.64024 -0.32155,0.92443 -0.17361,0.2884 -0.47888,0.25046 -0.10176,-0.0126 -0.63602,-0.14793 -2.11159,-0.46909 -4.04496,-0.70938 z"
         inkscape:connector-curvature="0" />
      <path
         id="path4282"
         style="fill:#ffffff"
         d="m 526.20166,477.39038 q -3.9787,-0.9964 -8.04861,-1.90994 -0.8372,-0.17442 -1.03614,-0.22424 -0.62996,-0.15777 -0.82877,-0.48944 -0.19052,-0.36483 -0.008,-1.09426 0.14116,-0.56364 0.85432,-1.16022 0.75463,-0.62142 0.9207,-1.28454 0.0664,-0.26525 0.28242,-1.40915 0.22431,-1.17706 0.43189,-2.00595 0.45669,-1.82357 1.9924,-6.9709 1.53571,-5.14734 2.38265,-8.52923 0.59784,-2.38721 1.17106,-5.3796 0.57322,-2.99238 0.71438,-3.55602 0.21588,-0.86205 0.70543,-1.97269 0.49786,-1.14379 0.57259,-1.44219 0.16607,-0.66311 -0.29794,-1.20214 -0.45571,-0.57218 -0.30625,-1.16898 0.2408,-0.96152 0.63884,-1.28466 0.40635,-0.3563 1.10262,-0.18193 0.26524,0.0664 1.39248,0.48967 1.12724,0.42324 2.0556,0.65573 0.62996,0.15777 1.85678,0.32406 1.25998,0.1746 1.88994,0.33237 1.19361,0.29892 1.08509,2.13921 -0.0671,1.81543 0.62921,1.9898 0.49734,0.12455 2.32166,-1.25081 1.86577,-1.40021 3.75565,-0.92692 1.79041,0.44838 2.55253,1.76677 0.79528,1.32669 0.3386,3.15026 -0.63936,2.55299 -2.77044,4.02771 -2.13108,1.47471 -4.38567,0.91008 -1.49201,-0.37365 -1.79802,-2.10634 -0.29771,-1.76585 -0.72874,-1.87379 -0.36471,-0.0913 -0.67984,0.1821 -0.31512,0.27343 -0.45628,0.83708 -0.16606,0.66312 -0.30785,2.77695 -0.10033,2.08899 -0.44077,3.44838 -0.2408,0.96152 -0.97933,2.78497 -0.70538,1.83175 -0.92957,2.72696 -0.30723,1.22676 -0.847,3.52282 -0.53978,2.29605 -0.80548,3.35703 -0.25741,1.02783 -0.65591,2.47838 -0.3985,1.45055 -0.49814,1.84842 -0.4899,1.95619 -0.63976,3.53948 -0.1084,1.55844 0.10702,1.8238 0.058,0.0498 0.21549,0.12444 0.86199,0.35681 0.62113,1.45925 -0.19928,0.79574 -0.59732,1.11888 -0.38974,0.28999 -0.95338,0.14883 -0.23209,-0.0581 -0.77914,-0.26559 -0.51388,-0.19917 -0.81228,-0.2739 z"
         inkscape:connector-curvature="0" />
      <path
         id="path4284"
         style="fill:#ffffff"
         d="m 555.77414,450.71539 q -0.89393,2.43899 -0.83599,3.77074 0.0579,1.33175 1.08489,1.70814 0.70603,0.25877 1.56917,-0.40776 0.907,-0.68686 1.31868,-1.81008 0.0588,-0.16046 0.18282,-0.69746 0.13577,-0.56909 0.26516,-0.9221 0.0706,-0.19256 0.29086,-0.69427 0.22028,-0.50171 0.36143,-0.88681 0.31758,-0.86649 -0.0163,-1.6441 -0.30175,-0.76586 -1.07196,-1.04815 -0.93067,-0.3411 -1.76172,0.33719 -0.79896,0.69005 -1.38707,2.29466 z m -11.20153,33.24405 q -5.64821,-2.07015 -6.91128,-8.35757 -1.21922,-6.30776 2.22711,-15.71074 1.23503,-3.36967 2.98251,-6.15108 1.75925,-2.81351 4.04272,-5.07085 3.36371,-3.31754 6.25388,-4.15121 2.92227,-0.82191 6.48449,0.48369 4.4608,1.63495 6.14397,5.78296 1.71526,4.15976 -0.0255,8.90939 -0.59988,1.6367 -1.585,2.0401 -0.97336,0.37131 -2.73843,-0.27561 -0.64184,-0.23524 -2.4615,-1.2298 -1.81967,-0.99456 -3.16754,-1.48858 -1.15531,-0.42344 -2.06129,-0.13664 -0.90599,0.2868 -1.22357,1.15328 -0.0941,0.25674 -0.22987,0.82583 -0.13577,0.56909 -0.24163,0.85792 -0.1882,0.51347 -0.68439,1.56932 -0.48443,1.02375 -0.69614,1.60141 -0.34111,0.93067 -0.88536,2.51494 -0.54426,1.58428 -0.7795,2.22612 -0.58811,1.6046 -1.51312,3.63178 -0.91324,1.99508 -1.06615,2.41227 -0.95274,2.59946 -0.79314,4.15048 0.17135,1.51893 1.45503,1.98942 1.28369,0.47049 2.50623,-0.28274 1.22255,-0.75322 1.78714,-2.29364 0.11762,-0.32092 0.24163,-0.85792 0.12401,-0.53699 0.21811,-0.79373 0.47049,-1.28368 1.76578,-1.93743 1.2953,-0.65375 2.5148,-0.20679 1.09113,0.39991 1.44967,1.80543 0.35853,1.40551 -0.26487,3.1064 -1.14093,3.11293 -4.8729,4.25692 -3.73197,1.14399 -7.87185,-0.37333 z"
         inkscape:connector-curvature="0" />
      <path
         id="path4286"
         style="fill:#ffffff"
         d="m 551.84764,497.49083 q -1.62084,-0.80902 -2.17231,-2.53592 -0.56673,-1.69631 0.28808,-3.40889 0.67164,-1.3456 2.09288,-1.82043 1.45182,-0.45957 2.85858,0.2426 0.58105,0.29003 1.43771,1.25243 0.88724,0.97767 1.37655,1.2219 0.55047,0.27476 1.25332,-0.13843 0.73344,-0.39793 1.17611,-1.2848 0.68691,-1.37618 2.48592,-8.19481 1.81427,-6.84921 3.65786,-15.51743 0.47236,-2.17088 1.00546,-4.92266 0.54837,-2.78236 0.68554,-3.36331 0.64027,-2.50728 1.57104,-4.90777 0.12207,-0.32108 0.16786,-0.41282 0.13717,-0.58095 -0.18428,-1.23801 -0.27561,-0.67238 0.18233,-1.58983 0.41215,-0.82571 0.87071,-0.82603 0.45857,-3.1e-4 1.95708,0.74765 0.39756,0.19844 1.22332,0.68701 0.82576,0.48857 1.28449,0.71754 0.51989,0.2595 1.34554,0.59522 0.85624,0.35098 1.16206,0.50362 2.14072,1.06852 2.32532,2.7651 0.19986,1.66599 -1.11216,5.36602 -1.724,4.75501 -2.01303,6.7882 -0.27376,2.00261 0.67427,2.47581 0.76455,0.38161 2.33806,-0.93403 1.58878,-1.34623 2.42833,-3.02823 0.79376,-1.59025 0.48547,-5.33502 -0.30829,-3.74476 0.37861,-5.12094 0.82429,-1.65142 2.21494,-2.14151 1.39066,-0.4901 2.98091,0.30366 2.07956,1.03799 2.50897,3.08596 0.44467,2.0174 -0.88335,4.67801 -0.68691,1.37618 -7.68208,9.57409 -6.96459,8.21318 -12.69112,16.3185 -4.22997,6.02545 -9.21132,8.58158 -4.95077,2.57139 -8.46767,0.81597 z"
         inkscape:connector-curvature="0" />
      <path
         id="path4288"
         style="fill:#ffffff"
         d="m 591.9365,474.12331 -1.1975,-0.72789 5.84772,-14.88486 q 0.15462,-0.38599 0.2852,-0.66661 0.13057,-0.28062 0.25484,-0.48507 0.94093,-1.54799 2.29134,-1.92712 1.36816,-0.40833 2.77011,0.44383 1.40195,0.85216 1.6757,2.17852 0.30296,1.34411 -0.62022,2.86289 -0.28405,0.46732 -0.47304,0.71243 -0.14202,0.23366 -0.31326,0.44956 l -10.52089,12.04432 z"
         inkscape:connector-curvature="0" />
      <path
         id="path4290"
         style="fill:#ffffff"
         d="m 585.98002,505.75139 q -2.91953,-2.08718 -3.75285,-4.74168 -0.78563,-2.66244 0.74496,-4.80343 0.93426,-1.30684 2.2217,-1.52088 1.30732,-0.24184 2.58635,0.67254 1.25123,0.89451 1.41368,2.01902 0.19025,1.14439 -0.70839,2.81281 -0.77536,1.37843 -0.74791,2.28038 0.0751,0.89402 0.93709,1.51024 0.86195,0.61621 1.90305,0.39413 1.08878,-0.23001 1.78451,-1.20319 1.29205,-1.80733 0.35748,-9.49209 -0.10294,-0.9139 -0.1544,-1.37085 -0.43552,-3.79866 0.19762,-7.21148 0.66095,-3.39293 2.15178,-5.47831 2.16669,-3.03076 3.89973,-4.6909 1.76084,-1.64026 3.41401,-2.3071 2.74597,-1.02002 5.63048,-0.76456 2.91233,0.27534 5.02551,1.78606 2.28002,1.62998 2.95834,4.38376 0.70612,2.77365 -0.4468,4.38635 -0.73548,1.02879 -2.11828,1.25868 -1.33512,0.22196 -2.39172,-0.5334 -1.91855,-1.37157 -0.56602,-5.32049 0.11537,-0.33768 0.16707,-0.46878 0.13927,-0.48866 -0.0433,-0.99732 -0.13488,-0.51658 -0.55196,-0.81475 -0.75073,-0.5367 -1.70842,-0.25499 -0.91,0.27379 -1.64548,1.30258 -1.47096,2.05758 -0.24506,6.63135 0.48001,1.85573 0.71795,2.99219 0.88419,4.58159 0.13202,7.57318 -0.75218,2.9916 -3.39593,6.68967 -4.09483,5.72785 -8.72032,7.08484 -4.59767,1.37687 -9.04649,-1.80358 z"
         inkscape:connector-curvature="0" />
    </g>
    <g
       style="font-style:normal;font-variant:normal;font-weight:normal;font-stretch:condensed;font-size:70px;line-height:125%;font-family:'Bernhard BdCn BT';-inkscape-font-specification:'Bernhard BdCn BT Condensed';letter-spacing:0px;word-spacing:0px;fill:#000000;fill-opacity:1;stroke:none;stroke-width:1px;stroke-linecap:butt;stroke-linejoin:miter;stroke-opacity:1"
       id="text4233"
       transform="matrix(1.2109847,0,0,1.2109847,-221.32734,-385.40323)"
       inkscape:export-xdpi="90"
       inkscape:export-ydpi="90">
      <path
         d="m 377.52481,501.4392 q -3.15584,1.91498 -5.9016,3.78101 -0.42058,0.29519 -0.50824,0.34839 -0.78896,0.47874 -1.12912,0.44527 -0.35788,-0.0627 -0.85436,-0.88088 -0.35462,-0.58442 -0.13533,-1.27721 0.23079,-0.73974 -0.46073,-1.87935 -0.0355,-0.0584 -0.25973,-0.36214 -0.88032,-1.38486 -1.73142,-2.78746 -1.9859,-3.27273 -4.70304,-7.42108 -2.68791,-4.16609 -3.25531,-5.10116 -0.60287,-0.9935 -1.49567,-2.53071 -0.89281,-1.53721 -1.2297,-2.09241 l -2.25187,-3.71104 q -0.74471,-1.22727 -2.71388,-4.67007 -1.95767,-3.48976 -3.26978,-5.6521 -0.51421,-0.8474 -1.44077,-0.92484 -0.91506,-0.1244 -1.447,-1.00102 -0.53194,-0.87663 -0.20626,-1.39409 0.30795,-0.54669 2.00276,-1.5751 0.29221,-0.17731 1.39111,-0.80415 1.0989,-0.62684 1.85864,-1.08785 0.0292,-0.0177 0.51448,-0.27221 0.51449,-0.27221 0.9528,-0.53818 1.63636,-0.99295 3.27797,-2.10902 0.36214,-0.25973 0.42058,-0.29519 0.61364,-0.37236 1.11337,-0.0759 0.48201,0.26724 1.13806,1.34841 0.0177,0.0292 -0.27149,0.80443 -0.26001,0.75747 0.78614,2.4815 1.77312,2.92207 3.74555,5.84316 0.48399,0.66583 0.55491,0.78272 0.76245,1.25649 1.4612,2.67157 0.15958,0.26299 0.21278,0.35065 0.8511,1.4026 1.55013,1.69806 0.72825,0.27774 1.72176,-0.32512 1.19805,-0.72698 1.15237,-1.65879 -0.0165,-0.94954 -1.75412,-3.81317 0,0 -0.6196,-0.82343 -0.60811,-0.87038 -1.12232,-1.71778 -0.0709,-0.11689 -0.3786,-0.68981 -0.30767,-0.57293 -0.57364,-1.01124 -0.10639,-0.17533 -0.63208,-0.97578 -0.5257,-0.80045 -0.91578,-1.4433 l -0.44329,-0.73052 q -0.65605,-1.08117 -1.07437,-1.507 -0.43604,-0.45505 -0.90556,-0.56994 -0.14086,-0.0345 -0.44555,-0.01 -0.77946,0.0332 -1.11635,-0.522 -0.51421,-0.84741 -0.41705,-1.34615 0.12639,-0.51647 1.00301,-1.04841 0.49675,-0.30143 1.85339,-0.96472 1.38586,-0.68102 2.20405,-1.1775 0.9935,-0.60286 2.6466,-1.76589 1.68232,-1.18076 2.41284,-1.62404 1.05195,-0.63832 1.58615,-0.48272 0.56343,0.13788 1.23722,1.24827 0.0709,0.11688 -0.13064,0.83889 -0.19008,0.67506 0.27094,1.4348 0.0177,0.0292 0.1888,0.24526 1.10983,1.56543 2.2801,3.494 0.21277,0.35065 0.703,1.09266 0.47251,0.71279 0.73847,1.1511 0.65606,1.08117 2.46366,3.86239 1.80759,2.78122 2.87147,4.53447 l 2.18094,3.59415 q 0.78018,1.28572 1.93795,3.06194 1.15778,1.77623 1.47695,2.3022 1.47169,2.42533 3.54724,6.04346 2.05782,3.5889 2.73161,4.69929 0.86883,1.43182 1.67226,1.50402 0.83266,0.0545 1.22274,0.69732 0.47875,0.78896 0.37009,1.33465 -0.0794,0.52797 -0.72228,0.91805 -0.0584,0.0355 -0.98826,0.47974 -0.9006,0.42655 -1.77722,0.95848 l -2.74676,1.66674 q -1.87012,1.1348 -3.6516,2.41571 -0.33292,0.24199 -0.42058,0.29519 -0.7013,0.42555 -1.35238,0.34087 -0.62187,-0.10242 -0.95876,-0.65761 -0.21278,-0.35065 0.0807,-1.44828 0.30497,-1.14458 -0.45747,-2.40107 -0.44328,-0.73052 -1.14005,-1.74701 -0.69677,-1.01648 -0.90954,-1.36713 -0.17732,-0.29221 -0.946,-1.62487 -0.76869,-1.33267 -1.38928,-2.3554 -0.42555,-0.7013 -1.79611,-2.82817 -1.38828,-2.1561 -2.27485,-3.61713 -2.03909,-3.36039 -3.00934,-3.97105 -0.95876,-0.6576 -2.09837,0.0339 -0.87662,0.53194 -0.87789,1.45226 0.0102,0.87336 0.91451,2.36362 0.40782,0.67208 0.98671,1.56019 0.57889,0.88811 0.73847,1.1511 0.42555,0.7013 1.30062,2.20929 0.87507,1.50799 1.37155,2.32617 0.31916,0.52598 0.82713,1.29721 0.49023,0.742 0.59662,0.91733 0.24824,0.40909 0.78641,1.36189 0.52045,0.92357 0.87508,1.50799 0.31916,0.52597 1.0399,1.64785 0.70301,1.09266 1.0399,1.64785 1.01068,1.66559 1.84958,1.79622 0.85038,0.0837 1.15182,0.58044 0.5142,0.84741 0.38782,1.36388 -0.0972,0.49874 -0.85691,0.95975 -0.0584,0.0355 -0.36838,0.18356 -1.43281,0.66953 -2.86463,1.53836 z"
         id="path4250"
         inkscape:connector-curvature="0"
         style="fill:#000000" />
      <path
         d="m 404.2285,487.26886 q -4.04961,1.65567 -6.94369,-0.81677 -2.86244,-2.48537 -7.82947,-14.63421 l -0.50446,-1.23387 q -0.53033,-1.29714 -1.43858,-3.87988 -0.90825,-2.58275 -1.39978,-3.78498 l -1.591,-3.89143 q -0.0259,-0.0633 -0.0977,-0.32931 -0.34348,-0.93042 -0.69272,-1.78464 -0.36218,-0.88585 -1.18319,-1.17792 -0.78937,-0.30501 -0.85404,-0.4632 -0.5174,-1.26551 -0.14195,-1.9729 0.40709,-0.72033 1.89406,-1.32827 0.28473,-0.11642 0.98793,-0.29314 0.70319,-0.17672 1.11448,-0.34487 0.60112,-0.24577 1.79618,-0.84514 1.19506,-0.59938 1.82781,-0.85808 1.10732,-0.45272 2.31498,0.60442 1.23929,1.04421 2.14474,3.25884 0.28457,0.69603 0.5389,1.58905 0.28597,0.88008 0.36358,1.06991 0.2587,0.63275 0.82067,1.91696 0.56197,1.28421 0.8336,1.9486 0.2587,0.63275 1.23599,3.11341 0.97729,2.48067 1.71459,4.28402 1.0736,2.62592 2.3844,5.56105 1.3295,2.89055 1.47178,3.23857 1.34524,3.29031 2.13741,3.96343 0.77924,0.64149 1.88655,0.18877 0.79094,-0.32338 1.09019,-1.03654 0.2863,-0.7448 -0.05,-1.56737 -0.0388,-0.0949 -0.28317,-0.51197 -1.95351,-3.1524 -3.53158,-7.01218 -0.31044,-0.75931 -0.87521,-2.41163 -0.57771,-1.68396 -0.93988,-2.56981 -0.37512,-0.91749 -1.22166,-2.89773 -0.85947,-2.01187 -1.3122,-3.11918 -0.46566,-1.13896 -1.14684,-3.07602 -0.68119,-1.93706 -0.96576,-2.63309 -0.49152,-1.20223 -1.07657,-2.18159 -0.56634,-1.02394 -0.71299,-1.11169 -0.0891,-0.0374 -0.66002,0.0114 -0.55217,0.004 -0.88848,-0.81838 -0.41392,-1.0124 0.0262,-1.56161 0.45882,-0.59377 2.19889,-1.3052 0.41129,-0.16815 1.2094,-0.38368 0.82974,-0.22846 1.20939,-0.38368 0.53784,-0.21989 1.38489,-0.67699 0.84705,-0.45709 1.25834,-0.62524 1.92989,-0.78903 2.78971,-0.40205 0.87851,0.34242 1.5382,1.95594 0.34924,0.85421 0.86227,2.37998 0.5001,1.49414 0.7588,2.12689 0.2975,0.72766 0.90264,1.84652 0.59221,1.08721 0.74743,1.46686 0.34925,0.85422 0.97432,2.92499 0.61215,2.03914 1.09074,3.20974 0.36218,0.88585 1.19298,2.46633 0.83081,1.58048 1.10245,2.24487 0.36217,0.88585 0.80476,2.32965 0.42966,1.41215 0.63662,1.91835 0.34924,0.85422 1.27059,2.65616 0.90842,1.77031 1.32233,2.78271 0.18109,0.44293 0.48717,1.4625 0.29313,0.98793 0.48716,1.4625 0.2587,0.63275 1.11134,0.91189 0.87135,0.23457 1.06538,0.70913 0.2975,0.72766 0.16081,1.11588 -0.10504,0.37529 -0.80107,0.65985 -0.28474,0.11642 -1.38629,0.49293 -1.10155,0.37652 -1.89249,0.69989 -0.56947,0.23283 -1.84075,0.82644 -1.23963,0.58067 -1.93566,0.86524 -1.13895,0.46566 -2.45882,-0.32405 -1.28824,-0.80264 -2.04754,-0.4922 -0.5062,0.20696 -1.55915,1.96679 -1.02131,1.74689 -2.88793,2.51006 z"
         id="path4252"
         inkscape:connector-curvature="0"
         style="fill:#000000" />
      <path
         d="m 427.04272,442.56395 q -0.97083,0.2 -1.37643,0.77212 -0.37212,0.56523 -0.18592,1.4691 0.0138,0.067 0.38218,1.17757 0.36839,1.11063 0.59597,2.21536 0.13104,0.63605 0.38233,2.36406 0.25129,1.728 0.47198,2.79925 0.19999,0.97083 0.66005,2.86521 0.46005,1.89437 0.64625,2.79825 0.12414,0.60258 0.29856,1.78805 0.16753,1.152 0.29167,1.75459 0.0345,0.16738 0.24626,0.8566 0.20488,0.65574 0.30833,1.15789 0.0759,0.36824 0.17543,1.35976 0.0996,0.99151 0.2306,1.62757 0.0965,0.46867 0.37729,1.49266 0.27385,0.9905 0.39109,1.55961 0.42069,2.04208 0.74669,2.77756 0.35948,0.72858 0.89712,0.9668 0.15459,0.0728 0.41652,0.15848 0.89309,0.26968 1.0655,1.10659 0.15173,0.73649 -0.0875,1.09985 -0.24611,0.32988 -1.21694,0.52988 -0.53563,0.11034 -2.43101,0.39612 -1.89538,0.28577 -3.1675,0.54784 -1.33907,0.27585 -3.02569,0.72801 -1.65315,0.44525 -2.02139,0.52111 -0.66953,0.13793 -0.98663,-0.21551 -0.29051,-0.39382 -0.52499,-1.53203 -0.0552,-0.26781 0.36321,-0.94726 0.45187,-0.68635 0.31394,-1.35588 -0.0759,-0.36824 -0.24727,-1.03088 -0.17141,-0.66264 -0.24037,-0.99741 -0.10345,-0.50215 -0.4227,-2.39063 -0.31925,-1.88849 -0.602,-3.26104 -0.31035,-1.50645 -0.9635,-4.33818 -0.66005,-2.8652 -0.93591,-4.20427 -0.20689,-1.0043 -0.51336,-3.00011 -0.30646,-1.99582 -0.49956,-2.93317 -0.16551,-0.80344 -0.47485,-2.13561 -0.31623,-1.36565 -0.42658,-1.90127 -0.15172,-0.73649 -0.4158,-2.35717 -0.27097,-1.65415 -0.45718,-2.55802 -0.26896,-1.30559 -0.99568,-1.78403 -0.70013,-0.51882 -0.82427,-1.1214 -0.17931,-0.8704 0.0264,-1.22686 0.23232,-0.39683 0.96881,-0.54856 0.70301,-0.14482 2.04309,-0.2464 1.34007,-0.10158 1.94265,-0.22572 0.53563,-0.11034 1.40502,-0.46393 0.90286,-0.36048 1.33806,-0.45014 1.77426,-0.36551 2.55127,0.69583 0.0945,0.12011 0.14181,0.18017 0.47959,0.63405 0.89611,0.79252 0.44999,0.15158 1.11953,0.0136 0.80344,-0.16551 2.31564,-1.80314 1.54567,-1.64453 3.5208,-2.05142 2.14251,-0.44137 4.60225,0.65718 2.45975,1.09855 2.9619,0.99511 0.76997,-0.15862 2.69567,-2.16062 1.9257,-2.00199 3.86735,-2.40198 3.98373,-0.82068 6.00741,1.37973 2.02369,2.20041 3.85815,11.10521 0.37931,1.84122 0.72816,4.21217 0.34195,2.33748 0.4316,2.77268 0.22069,1.07125 0.61767,2.49006 0.39008,1.38533 0.45904,1.7201 0.95861,4.65326 1.64151,9.15394 0.12514,0.77686 0.15273,0.91077 0.17241,0.83692 0.89424,1.63044 0.74841,0.75316 0.90014,1.48964 0.13103,0.63606 -0.13477,1.03979 -0.23233,0.39684 -0.83491,0.52098 -0.53563,0.11034 -1.89538,0.28577 -1.32628,0.16853 -2.12972,0.33405 -0.63606,0.13103 -1.5862,0.43146 -0.91666,0.29353 -1.25142,0.36249 -2.20946,0.45517 -2.97167,-0.36494 -0.76221,-0.8201 -1.70702,-5.40641 l -0.43448,-2.10903 q -0.4,-1.94165 -0.85818,-4.67396 -0.46508,-2.76577 -0.6237,-3.53574 -0.25517,-1.23864 -0.95071,-4.4455 -0.69554,-3.20687 -1.08864,-5.11504 -0.12414,-0.60258 -0.46594,-1.75358 -0.34181,-1.15099 -0.47284,-1.78705 -0.11724,-0.5691 -0.28376,-1.54683 -0.16652,-0.97772 -0.24239,-1.34596 -0.17241,-0.83692 -0.81148,-1.22872 -0.6056,-0.39871 -1.44252,-0.2263 -0.90387,0.18621 -1.24151,0.91882 -0.33764,0.7326 -0.0756,2.00472 0.1931,0.93735 0.65013,2.30889 0.45704,1.37154 0.5398,1.77326 0.069,0.33476 0.26307,1.44639 0.61393,4.16591 1.36564,7.81487 0.7931,3.84982 1.53404,7.95467 0.17342,1.0112 0.22169,1.24553 0.0621,0.30129 0.33003,1.43261 0.26796,1.13131 0.44726,2.0017 0.0621,0.30129 0.14684,1.05157 0.0779,0.71681 0.16753,1.152 0.11724,0.56911 1.02413,0.90574 0.94036,0.32974 1.01622,0.69798 0.23448,1.13821 -0.0776,1.65617 -0.28549,0.47758 -1.49065,0.72585 -0.53563,0.11034 -2.23015,0.35474 -1.69453,0.24439 -2.83273,0.47887 -1.00431,0.2069 -2.0076,0.58807 -0.22744,0.0817 -0.26092,0.0887 -1.67383,0.34482 -2.60946,-1.48648 -0.94252,-1.86478 -2.77698,-10.76959 l -0.31034,-1.50645 -0.64827,-3.14681 q -0.1931,-0.93734 -0.5783,-2.63776 -0.39209,-1.73389 -0.55071,-2.50386 -0.31724,-1.53992 -0.71336,-3.97094 -0.40301,-2.46449 -0.58232,-3.33488 -0.62758,-3.04638 -1.2145,-3.69321 -0.55344,-0.65373 -1.62469,-0.43305 z"
         id="path4254"
         inkscape:connector-curvature="0"
         style="fill:#000000" />
      <path
         d="m 473.21692,464.56495 q 0.0246,1.23022 0.37724,1.77016 0.38683,0.53925 1.20698,0.52286 1.43526,-0.0287 1.99437,-2.84315 0.55911,-2.81447 0.42593,-9.47818 -0.22811,-11.41374 -0.83771,-14.54671 -0.6096,-3.13298 -2.18155,-3.10156 -0.54676,0.0109 -0.98213,0.46405 -0.40188,0.41827 -0.39095,0.96504 0.005,0.23921 0.0847,0.81878 0.11345,0.54472 0.1196,0.85227 0.008,0.41008 -0.0629,1.98408 -0.0376,1.53914 -0.0144,2.70102 0.0102,0.51259 0.084,2.49393 0.0731,1.94717 0.10246,3.41661 0.0307,1.53778 -0.0247,3.89775 -0.0561,2.32581 -0.041,3.07761 0.0205,1.02519 0.15306,2.52674 0.13188,1.46739 0.14008,1.87746 0.004,0.20504 -0.0813,1.06141 -0.0854,0.85637 -0.0718,1.53983 z m 0.20693,10.35437 q 0.0376,1.87951 0.34988,3.8219 0.11481,0.61306 0.11686,0.71558 0.0191,0.95684 -0.48186,1.54803 -0.46681,0.5905 -1.25279,0.6062 -0.78597,0.0157 -2.46386,-0.12169 -1.64371,-0.13808 -2.49803,-0.12101 -0.85432,0.0171 -2.1153,0.21321 -1.22681,0.19545 -1.60271,0.20297 -0.85432,0.0171 -1.16803,-0.28434 -0.31302,-0.26724 -0.32804,-1.01904 -0.015,-0.7518 0.58506,-1.5159 0.63494,-0.7306 0.60489,-2.23421 l -0.0936,-4.68168 q -0.0157,-0.78598 -0.1674,-3.24438 -0.1517,-2.45839 -0.18448,-4.09869 -0.0198,-0.99101 10e-4,-3.35031 0.0212,-2.35929 -0.006,-3.7262 -0.0123,-0.61512 -0.11615,-2.39074 -0.10386,-1.77562 -0.1264,-2.90333 -0.0246,-1.23022 -0.0232,-2.8712 7e-4,-1.67515 -0.008,-2.1194 -0.043,-2.15289 -0.12637,-4.61265 -0.0833,-2.45977 -0.0902,-2.8015 l -0.0546,-2.73383 q -0.005,-0.23921 0.0506,-0.88986 0.0547,-0.68482 0.0472,-1.06072 -0.0143,-0.71763 -0.77434,-1.11268 -0.72651,-0.4299 -0.74017,-1.11336 -0.0157,-0.78598 0.45452,-1.20561 0.5044,-0.42032 1.49541,-0.44013 0.3759,-0.008 1.53915,0.0376 1.19741,0.0445 1.94921,0.0294 0.47842,-0.01 1.26303,-0.0936 0.78461,-0.0841 1.12634,-0.0909 2.32376,-0.0464 2.96346,1.17149 0.67387,1.21725 1.42567,1.20222 0.0684,-0.001 1.50705,-1.56851 1.4387,-1.56715 3.72828,-1.6129 4.98924,-0.0997 7.62457,5.18071 2.66951,5.27975 2.87713,15.6683 0.19327,9.67092 -2.16268,14.94854 -2.35664,5.24345 -6.86745,5.3336 -1.6403,0.0328 -3.1644,-0.96236 -1.4906,-1.02999 -1.79816,-1.02384 -0.78597,0.0157 -1.07782,0.80783 -0.29253,0.75795 -0.23516,3.62847 l 0.0178,0.88849 z"
         id="path4256"
         inkscape:connector-curvature="0"
         style="fill:#000000" />
      <path
         d="m 497.15761,472.10125 q -2.57782,-0.32038 -5.55404,-0.48362 -0.89032,-0.0418 -1.09383,-0.0671 -0.67838,-0.0843 -0.94571,-0.42752 -0.23341,-0.33899 -0.13645,-1.11912 0.0717,-0.57662 0.73681,-1.21725 0.70328,-0.67033 0.76229,-1.14519 0.0379,-0.30527 0.046,-0.92424 0.008,-0.61897 0.0418,-0.89032 0.0843,-0.67837 0.30391,-1.89101 0.2196,-1.21265 0.28705,-1.75535 0.0337,-0.27135 0.14735,-1.46272 0.64744,-7.70357 1.64652,-15.74231 0.14333,-1.15324 0.56949,-4.0279 0.43037,-2.90858 0.6538,-4.70627 0.14754,-1.18716 0.33704,-2.98906 0.18951,-1.80191 0.2696,-2.44637 0.21921,-1.76377 0.54439,-3.54882 0.0887,-0.43673 0.10137,-0.53848 0.17284,-1.39067 -0.36604,-2.04317 -0.50074,-0.6822 -0.48387,-0.81787 0.15176,-1.22108 0.54996,-1.65379 0.40242,-0.46662 1.31823,-0.3528 0.61053,0.0759 1.71721,0.31675 1.10667,0.24087 1.61545,0.3041 0.64445,0.0801 2.14952,0.16382 1.50508,0.0837 2.31912,0.1849 1.18716,0.14755 1.4888,1.0461 0.30585,0.86464 -0.13257,4.39218 -0.0927,0.74622 -0.32096,1.75113 -0.22822,1.00492 -0.26195,1.27627 -0.0548,0.44094 -0.0458,1.1998 0.009,0.75886 -0.0289,1.06413 -0.0169,0.13567 -0.0803,0.36889 -0.0634,0.23321 -0.0719,0.30105 -0.0801,0.64446 0.0345,0.83091 0.14852,0.19067 0.62338,0.24969 0.23743,0.0295 2.55558,-1.16342 2.31815,-1.19292 4.18368,-0.96107 3.93457,0.489 5.34826,3.2479 1.45182,2.72919 0.71411,8.66497 -0.23607,1.89945 -0.7088,4.87165 -0.47272,2.9722 -0.60762,4.0576 -0.1349,1.0854 -0.32421,3.16288 -0.18931,2.07747 -0.30734,3.0272 -0.0675,0.5427 -0.30391,1.89101 -0.23224,1.3144 -0.33342,2.12845 -0.10117,0.81405 -0.22725,2.38274 -0.12186,1.53478 -0.2146,2.28099 -0.0337,0.27135 -0.18166,0.90737 -0.14793,0.63603 -0.18587,0.9413 -0.10117,0.81405 0.46299,1.26303 0.59809,0.4532 0.50535,1.19942 -0.0843,0.67837 -0.30871,1.09824 -0.18626,0.39016 -0.42369,0.36065 -0.13568,-0.0169 -0.742,-0.12666 -2.75183,-0.5831 -5.43141,-0.91613 -1.52634,-0.1897 -3.01435,-0.13354 -0.24165,0.004 -0.27557,2e-4 -0.98364,-0.12225 -1.0494,-3.19582 -0.0615,-3.10749 0.78999,-9.95907 0.17284,-1.39067 0.44704,-3.31982 0.27842,-1.96308 0.3543,-2.57361 0.11804,-0.94973 0.62449,-4.19328 0.51066,-3.27747 0.79732,-5.58394 0.34145,-2.74742 -0.21927,-4.33259 -0.55652,-1.61908 -1.91327,-1.7877 -0.64445,-0.0801 -1.11049,0.34418 -0.46605,0.42427 -0.563,1.2044 -0.008,0.0678 0.14488,1.05129 0.15332,0.98345 0.0437,1.86534 -0.0337,0.27135 -0.21116,1.1448 -0.17323,0.83954 -0.25333,1.484 -0.0548,0.44094 -0.10941,1.15745 -0.0546,0.71651 -0.0925,1.02178 -0.0885,0.71229 -0.33342,2.12844 -0.24067,1.38224 -0.3292,2.09453 -0.11382,0.91581 -0.23127,2.69223 -0.11324,1.7425 -0.21863,2.59047 -0.1096,0.88189 -0.47253,3.24777 -0.3587,2.33196 -0.54419,3.82438 -0.22342,1.7977 -0.24333,3.62068 0.0182,1.79329 0.10733,1.90769 0.0977,0.32213 0.67033,0.70328 0.57681,0.34723 0.47564,1.16128 -0.11401,0.64024 -0.32155,0.92443 -0.17361,0.2884 -0.47888,0.25046 -0.10176,-0.0126 -0.63602,-0.14793 -2.11159,-0.46909 -4.04496,-0.70938 z"
         id="path4258"
         inkscape:connector-curvature="0"
         style="fill:#000000" />
      <path
         d="m 526.20166,477.39038 q -3.9787,-0.9964 -8.04861,-1.90994 -0.8372,-0.17442 -1.03614,-0.22424 -0.62996,-0.15777 -0.82877,-0.48944 -0.19052,-0.36483 -0.008,-1.09426 0.14116,-0.56364 0.85432,-1.16022 0.75463,-0.62142 0.9207,-1.28454 0.0664,-0.26525 0.28242,-1.40915 0.22431,-1.17706 0.43189,-2.00595 0.45669,-1.82357 1.9924,-6.9709 1.53571,-5.14734 2.38265,-8.52923 0.59784,-2.38721 1.17106,-5.3796 0.57322,-2.99238 0.71438,-3.55602 0.21588,-0.86205 0.70543,-1.97269 0.49786,-1.14379 0.57259,-1.44219 0.16607,-0.66311 -0.29794,-1.20214 -0.45571,-0.57218 -0.30625,-1.16898 0.2408,-0.96152 0.63884,-1.28466 0.40635,-0.3563 1.10262,-0.18193 0.26524,0.0664 1.39248,0.48967 1.12724,0.42324 2.0556,0.65573 0.62996,0.15777 1.85678,0.32406 1.25998,0.1746 1.88994,0.33237 1.19361,0.29892 1.08509,2.13921 -0.0671,1.81543 0.62921,1.9898 0.49734,0.12455 2.32166,-1.25081 1.86577,-1.40021 3.75565,-0.92692 1.79041,0.44838 2.55253,1.76677 0.79528,1.32669 0.3386,3.15026 -0.63936,2.55299 -2.77044,4.02771 -2.13108,1.47471 -4.38567,0.91008 -1.49201,-0.37365 -1.79802,-2.10634 -0.29771,-1.76585 -0.72874,-1.87379 -0.36471,-0.0913 -0.67984,0.1821 -0.31512,0.27343 -0.45628,0.83708 -0.16606,0.66312 -0.30785,2.77695 -0.10033,2.08899 -0.44077,3.44838 -0.2408,0.96152 -0.97933,2.78497 -0.70538,1.83175 -0.92957,2.72696 -0.30723,1.22676 -0.847,3.52282 -0.53978,2.29605 -0.80548,3.35703 -0.25741,1.02783 -0.65591,2.47838 -0.3985,1.45055 -0.49814,1.84842 -0.4899,1.95619 -0.63976,3.53948 -0.1084,1.55844 0.10702,1.8238 0.058,0.0498 0.21549,0.12444 0.86199,0.35681 0.62113,1.45925 -0.19928,0.79574 -0.59732,1.11888 -0.38974,0.28999 -0.95338,0.14883 -0.23209,-0.0581 -0.77914,-0.26559 -0.51388,-0.19917 -0.81228,-0.2739 z"
         id="path4260"
         inkscape:connector-curvature="0"
         style="fill:#000000" />
      <path
         d="m 555.77414,450.71539 q -0.89393,2.43899 -0.83599,3.77074 0.0579,1.33175 1.08489,1.70814 0.70603,0.25877 1.56917,-0.40776 0.907,-0.68686 1.31868,-1.81008 0.0588,-0.16046 0.18282,-0.69746 0.13577,-0.56909 0.26516,-0.9221 0.0706,-0.19256 0.29086,-0.69427 0.22028,-0.50171 0.36143,-0.88681 0.31758,-0.86649 -0.0163,-1.6441 -0.30175,-0.76586 -1.07196,-1.04815 -0.93067,-0.3411 -1.76172,0.33719 -0.79896,0.69005 -1.38707,2.29466 z m -11.20153,33.24405 q -5.64821,-2.07015 -6.91128,-8.35757 -1.21922,-6.30776 2.22711,-15.71074 1.23503,-3.36967 2.98251,-6.15108 1.75925,-2.81351 4.04272,-5.07085 3.36371,-3.31754 6.25388,-4.15121 2.92227,-0.82191 6.48449,0.48369 4.4608,1.63495 6.14397,5.78296 1.71526,4.15976 -0.0255,8.90939 -0.59988,1.6367 -1.585,2.0401 -0.97336,0.37131 -2.73843,-0.27561 -0.64184,-0.23524 -2.4615,-1.2298 -1.81967,-0.99456 -3.16754,-1.48858 -1.15531,-0.42344 -2.06129,-0.13664 -0.90599,0.2868 -1.22357,1.15328 -0.0941,0.25674 -0.22987,0.82583 -0.13577,0.56909 -0.24163,0.85792 -0.1882,0.51347 -0.68439,1.56932 -0.48443,1.02375 -0.69614,1.60141 -0.34111,0.93067 -0.88536,2.51494 -0.54426,1.58428 -0.7795,2.22612 -0.58811,1.6046 -1.51312,3.63178 -0.91324,1.99508 -1.06615,2.41227 -0.95274,2.59946 -0.79314,4.15048 0.17135,1.51893 1.45503,1.98942 1.28369,0.47049 2.50623,-0.28274 1.22255,-0.75322 1.78714,-2.29364 0.11762,-0.32092 0.24163,-0.85792 0.12401,-0.53699 0.21811,-0.79373 0.47049,-1.28368 1.76578,-1.93743 1.2953,-0.65375 2.5148,-0.20679 1.09113,0.39991 1.44967,1.80543 0.35853,1.40551 -0.26487,3.1064 -1.14093,3.11293 -4.8729,4.25692 -3.73197,1.14399 -7.87185,-0.37333 z"
         id="path4262"
         inkscape:connector-curvature="0"
         style="fill:#000000" />
      <path
         d="m 551.84764,497.49083 q -1.62084,-0.80902 -2.17231,-2.53592 -0.56673,-1.69631 0.28808,-3.40889 0.67164,-1.3456 2.09288,-1.82043 1.45182,-0.45957 2.85858,0.2426 0.58105,0.29003 1.43771,1.25243 0.88724,0.97767 1.37655,1.2219 0.55047,0.27476 1.25332,-0.13843 0.73344,-0.39793 1.17611,-1.2848 0.68691,-1.37618 2.48592,-8.19481 1.81427,-6.84921 3.65786,-15.51743 0.47236,-2.17088 1.00546,-4.92266 0.54837,-2.78236 0.68554,-3.36331 0.64027,-2.50728 1.57104,-4.90777 0.12207,-0.32108 0.16786,-0.41282 0.13717,-0.58095 -0.18428,-1.23801 -0.27561,-0.67238 0.18233,-1.58983 0.41215,-0.82571 0.87071,-0.82603 0.45857,-3.1e-4 1.95708,0.74765 0.39756,0.19844 1.22332,0.68701 0.82576,0.48857 1.28449,0.71754 0.51989,0.2595 1.34554,0.59522 0.85624,0.35098 1.16206,0.50362 2.14072,1.06852 2.32532,2.7651 0.19986,1.66599 -1.11216,5.36602 -1.724,4.75501 -2.01303,6.7882 -0.27376,2.00261 0.67427,2.47581 0.76455,0.38161 2.33806,-0.93403 1.58878,-1.34623 2.42833,-3.02823 0.79376,-1.59025 0.48547,-5.33502 -0.30829,-3.74476 0.37861,-5.12094 0.82429,-1.65142 2.21494,-2.14151 1.39066,-0.4901 2.98091,0.30366 2.07956,1.03799 2.50897,3.08596 0.44467,2.0174 -0.88335,4.67801 -0.68691,1.37618 -7.68208,9.57409 -6.96459,8.21318 -12.69112,16.3185 -4.22997,6.02545 -9.21132,8.58158 -4.95077,2.57139 -8.46767,0.81597 z"
         id="path4264"
         inkscape:connector-curvature="0"
         style="fill:#000000" />
      <path
         d="m 591.9365,474.12331 -1.1975,-0.72789 5.84772,-14.88486 q 0.15462,-0.38599 0.2852,-0.66661 0.13057,-0.28062 0.25484,-0.48507 0.94093,-1.54799 2.29134,-1.92712 1.36816,-0.40833 2.77011,0.44383 1.40195,0.85216 1.6757,2.17852 0.30296,1.34411 -0.62022,2.86289 -0.28405,0.46732 -0.47304,0.71243 -0.14202,0.23366 -0.31326,0.44956 l -10.52089,12.04432 z"
         id="path4266"
         inkscape:connector-curvature="0"
         style="fill:#000000" />
      <path
         d="m 585.98002,505.75139 q -2.91953,-2.08718 -3.75285,-4.74168 -0.78563,-2.66244 0.74496,-4.80343 0.93426,-1.30684 2.2217,-1.52088 1.30732,-0.24184 2.58635,0.67254 1.25123,0.89451 1.41368,2.01902 0.19025,1.14439 -0.70839,2.81281 -0.77536,1.37843 -0.74791,2.28038 0.0751,0.89402 0.93709,1.51024 0.86195,0.61621 1.90305,0.39413 1.08878,-0.23001 1.78451,-1.20319 1.29205,-1.80733 0.35748,-9.49209 -0.10294,-0.9139 -0.1544,-1.37085 -0.43552,-3.79866 0.19762,-7.21148 0.66095,-3.39293 2.15178,-5.47831 2.16669,-3.03076 3.89973,-4.6909 1.76084,-1.64026 3.41401,-2.3071 2.74597,-1.02002 5.63048,-0.76456 2.91233,0.27534 5.02551,1.78606 2.28002,1.62998 2.95834,4.38376 0.70612,2.77365 -0.4468,4.38635 -0.73548,1.02879 -2.11828,1.25868 -1.33512,0.22196 -2.39172,-0.5334 -1.91855,-1.37157 -0.56602,-5.32049 0.11537,-0.33768 0.16707,-0.46878 0.13927,-0.48866 -0.0433,-0.99732 -0.13488,-0.51658 -0.55196,-0.81475 -0.75073,-0.5367 -1.70842,-0.25499 -0.91,0.27379 -1.64548,1.30258 -1.47096,2.05758 -0.24506,6.63135 0.48001,1.85573 0.71795,2.99219 0.88419,4.58159 0.13202,7.57318 -0.75218,2.9916 -3.39593,6.68967 -4.09483,5.72785 -8.72032,7.08484 -4.59767,1.37687 -9.04649,-1.80358 z"
         id="path4268"
         inkscape:connector-curvature="0"
         style="fill:#000000" />
    </g>
    <text
       sodipodi:linespacing="125%"
       id="text4360"
       y="323.0672"
       x="202.02335"
       style="font-style:normal;font-variant:normal;font-weight:normal;font-stretch:condensed;font-size:103.94192505px;line-height:125%;font-family:'Zurich XCn BT';-inkscape-font-specification:'Zurich XCn BT Condensed';letter-spacing:-4.57344484px;word-spacing:0px;fill:#ffffff;fill-opacity:1;stroke:none;stroke-width:1px;stroke-linecap:butt;stroke-linejoin:miter;stroke-opacity:1"
       xml:space="preserve"
       inkscape:export-xdpi="90"
       inkscape:export-ydpi="90"><tspan
         y="323.0672"
         x="202.02335"
         id="tspan4362"
         sodipodi:role="line">SHOE POLISH</tspan></text>
    <g
       style="font-style:normal;font-variant:normal;font-weight:normal;font-stretch:condensed;font-size:103.94192505px;line-height:125%;font-family:'Zurich XCn BT';-inkscape-font-specification:'Zurich XCn BT Condensed';letter-spacing:0px;word-spacing:0px;fill:#000000;fill-opacity:1;stroke:none;stroke-width:1px;stroke-linecap:butt;stroke-linejoin:miter;stroke-opacity:1"
       id="text4292"
       transform="translate(-120,-270)">
      <path
         d="m 352.48749,530.6028 0,6.54712 -9.6938,0 0,-7.20691 q 0,-3.65421 -0.8628,-5.07529 -0.81205,-1.47183 -2.89292,-1.47183 -2.28388,0 -3.24818,1.62409 -0.91355,1.62409 -0.91355,6.29336 l 0,3.65421 q 0,4.00947 3.95872,9.49079 0,0.0507 0,0.0507 l 9.18628,13.09425 q 2.84216,4.11098 3.80646,7.05465 0.96431,2.89291 0.96431,6.54712 l 0,4.92303 q 0,8.57724 -3.70496,12.84048 -3.65421,4.21249 -11.06413,4.21249 -7.46068,0 -10.55661,-3.34969 -3.04517,-3.34969 -3.04517,-11.72391 l 0,-7.40993 9.84606,0 0,7.61294 q 0,4.00948 0.91355,5.58282 0.96431,1.57334 3.24819,1.57334 2.53764,0 3.50195,-1.7256 0.9643,-1.77635 0.9643,-7.0039 l 0,-4.36475 q 0,-4.21249 -3.80646,-9.84606 -0.15226,-0.20301 -0.25377,-0.35527 l -9.64305,-14.0078 q -2.08087,-2.94367 -3.04517,-5.58282 -0.91355,-2.6899 -0.91355,-5.43056 l 0,-5.22755 q 0,-7.91745 3.60345,-11.92693 3.65421,-4.06023 10.86112,-4.06023 6.75014,0 9.74456,3.40045 3.04517,3.40044 3.04517,11.26714 z"
         style="letter-spacing:-4.57344484px"
         id="path4423"
         inkscape:connector-curvature="0" />
      <path
         d="m 357.25258,517.05178 9.64305,0 0,32.22808 10.50585,0 0,-32.22808 9.64305,0 0,74.86051 -9.64305,0 0,-35.01949 -10.50585,0 0,35.01949 -9.64305,0 0,-74.86051 z"
         style="letter-spacing:-4.57344484px"
         id="path4425"
         inkscape:connector-curvature="0" />
      <path
         d="m 423.37792,535.8811 0,37.20187 q 0,11.57166 -3.3497,15.8349 -3.29893,4.26324 -11.82542,4.26324 -8.17122,0 -11.47015,-4.31399 -3.29894,-4.36475 -3.29894,-15.78415 l 0,-37.20187 q 0,-11.52091 3.29894,-15.7334 3.34969,-4.21249 11.92693,-4.21249 8.22196,0 11.47015,4.26324 3.24819,4.26325 3.24819,15.68265 z m -9.74456,-1.87786 q 0,-6.1411 -1.16732,-8.32347 -1.11656,-2.18238 -4.06023,-2.18238 -2.89291,0 -4.06023,2.13162 -1.11656,2.08087 -1.11656,8.37423 l 0,40.95759 q 0,6.34411 1.11656,8.42498 1.16732,2.08087 4.06023,2.08087 2.94367,0 4.06023,-2.13163 1.16732,-2.18237 1.16732,-8.37422 l 0,-40.95759 z"
         style="letter-spacing:-4.57344484px"
         id="path4427"
         inkscape:connector-curvature="0" />
      <path
         d="m 429.91935,517.05178 22.33128,0 0,7.91745 -12.68823,0 0,23.90461 12.07919,0 0,7.91745 -12.07919,0 0,27.20355 13.39877,0 0,7.91745 -23.04182,0 0,-74.86051 z"
         style="letter-spacing:-4.57344484px"
         id="path4429"
         inkscape:connector-curvature="0" />
      <path
         d="m 480.35636,524.5632 0,27.76184 1.67485,0 q 3.90797,0 5.32905,-1.77636 1.42108,-1.77635 1.42108,-7.15615 l 0,-9.99832 q 0,-5.37981 -1.42108,-7.10541 -1.37033,-1.7256 -5.32905,-1.7256 l -1.67485,0 z m -9.23703,-7.51142 11.11489,0 q 9.03401,0 12.63747,3.09592 3.65421,3.04518 3.65421,10.4551 l 0,15.58114 q 0,7.25766 -3.60346,10.45509 -3.60345,3.14668 -11.87618,3.14668 l -2.6899,0 0,32.12658 -9.23703,0 0,-74.86051 z"
         style="letter-spacing:-4.57344484px"
         id="path4431"
         inkscape:connector-curvature="0" />
      <path
         d="m 531.56034,535.8811 0,37.20187 q 0,11.57166 -3.34969,15.8349 -3.29894,4.26324 -11.82542,4.26324 -8.17122,0 -11.47016,-4.31399 -3.29894,-4.36475 -3.29894,-15.78415 l 0,-37.20187 q 0,-11.52091 3.29894,-15.7334 3.34969,-4.21249 11.92693,-4.21249 8.22197,0 11.47016,4.26324 3.24818,4.26325 3.24818,15.68265 z m -9.74455,-1.87786 q 0,-6.1411 -1.16732,-8.32347 -1.11656,-2.18238 -4.06023,-2.18238 -2.89292,0 -4.06023,2.13162 -1.11657,2.08087 -1.11657,8.37423 l 0,40.95759 q 0,6.34411 1.11657,8.42498 1.16731,2.08087 4.06023,2.08087 2.94367,0 4.06023,-2.13163 1.16732,-2.18237 1.16732,-8.37422 l 0,-40.95759 z"
         style="letter-spacing:-4.57344484px"
         id="path4433"
         inkscape:connector-curvature="0" />
      <path
         d="m 538.10179,517.05178 9.64305,0 0,66.94306 13.70328,0 0,7.91745 -23.34633,0 0,-74.86051 z"
         style="letter-spacing:-4.57344484px"
         id="path4435"
         inkscape:connector-curvature="0" />
      <path
         d="m 562.66049,517.05178 9.84606,0 0,74.86051 -9.84606,0 0,-74.86051 z"
         style="letter-spacing:-4.57344484px"
         id="path4437"
         inkscape:connector-curvature="0" />
      <path
         d="m 605.28723,530.6028 0,6.54712 -9.6938,0 0,-7.20691 q 0,-3.65421 -0.8628,-5.07529 -0.81204,-1.47183 -2.89291,-1.47183 -2.28388,0 -3.24819,1.62409 -0.91355,1.62409 -0.91355,6.29336 l 0,3.65421 q 0,4.00947 3.95873,9.49079 0,0.0507 0,0.0507 l 9.18627,13.09425 q 2.84216,4.11098 3.80647,7.05465 0.9643,2.89291 0.9643,6.54712 l 0,4.92303 q 0,8.57724 -3.70496,12.84048 -3.65421,4.21249 -11.06413,4.21249 -7.46068,0 -10.5566,-3.34969 -3.04518,-3.34969 -3.04518,-11.72391 l 0,-7.40993 9.84607,0 0,7.61294 q 0,4.00948 0.91355,5.58282 0.9643,1.57334 3.24818,1.57334 2.53765,0 3.50195,-1.7256 0.96431,-1.77635 0.96431,-7.0039 l 0,-4.36475 q 0,-4.21249 -3.80647,-9.84606 -0.15226,-0.20301 -0.25376,-0.35527 l -9.64305,-14.0078 q -2.08087,-2.94367 -3.04518,-5.58282 -0.91355,-2.6899 -0.91355,-5.43056 l 0,-5.22755 q 0,-7.91745 3.60346,-11.92693 3.6542,-4.06023 10.86112,-4.06023 6.75013,0 9.74455,3.40045 3.04517,3.40044 3.04517,11.26714 z"
         style="letter-spacing:-4.57344484px"
         id="path4439"
         inkscape:connector-curvature="0" />
      <path
         d="m 610.05233,517.05178 9.64305,0 0,32.22808 10.50585,0 0,-32.22808 9.64305,0 0,74.86051 -9.64305,0 0,-35.01949 -10.50585,0 0,35.01949 -9.64305,0 0,-74.86051 z"
         style="letter-spacing:-4.57344484px"
         id="path4441"
         inkscape:connector-curvature="0" />
    </g>
    <path
       style="color:#000000;display:inline;overflow:visible;visibility:visible;opacity:1;fill:#000000;fill-opacity:1;fill-rule:nonzero;stroke:none;stroke-width:70;stroke-linecap:round;stroke-linejoin:round;stroke-miterlimit:4;stroke-dasharray:none;stroke-dashoffset:0;stroke-opacity:1;marker:none;enable-background:accumulate"
       d="m 171.01758,334.38281 -5.71094,24.44531 c 3.21364,1.18991 6.6201,2.30566 10.36719,3.30469 6.78047,1.7236 14.78546,2.66464 22.69336,3.61719 4.22953,0.31338 8.2504,0.58256 12.17773,0.83203 -0.44553,0.44475 -0.88495,0.89594 -1.31054,1.36133 -4.31579,8.99419 -0.88235,41.92747 -0.66211,57.04492 0.01,0.68312 0.31792,1.35123 0.51171,2.02344 0.65759,2.28115 0.52335,1.73556 1.78516,4.03711 2.34959,4.55182 6.12983,8.70305 10.17578,12.72851 2.04087,1.96042 4.52811,3.69351 7.02735,5.41993 0.80204,0.55403 1.56565,1.13015 2.39843,1.66601 1.65842,1.06708 4.0619,2.38473 5.8125,3.3711 7.53475,4.20055 16.16774,7.46001 24.84571,10.62109 10.57976,3.73232 21.86537,6.52488 33.33007,8.9668 11.38469,2.24067 23.11779,3.5741 34.89844,4.66015 8.69653,0.76309 17.46316,1.0116 26.23242,1.0332 l 0,0.002 c 2.92308,0.007 5.84843,-0.0119 8.76954,-0.0449 0.14242,-0.008 0.27798,-0.0174 0.41992,-0.0254 0.14182,0.008 0.27758,0.0174 0.41992,0.0254 11.68439,0.13192 23.40461,0.0272 35,-0.99024 11.78064,-1.08605 23.51375,-2.41948 34.89844,-4.66015 11.4647,-2.44192 22.7503,-5.23448 33.33007,-8.9668 8.67796,-3.16108 17.31291,-6.42054 24.84766,-10.62109 1.75061,-0.98637 4.15213,-2.30402 5.81055,-3.3711 0.83278,-0.53586 1.59638,-1.11198 2.39844,-1.66601 2.49923,-1.72642 4.98451,-3.45951 7.02539,-5.41993 4.04595,-4.02546 7.83205,-8.17669 10.18164,-12.72851 1.26181,-2.30155 1.12365,-1.75596 1.78125,-4.03711 0.19378,-0.67221 0.50172,-1.34032 0.51172,-2.02344 0.22024,-15.11745 3.65367,-48.05073 -0.66211,-57.04492 -0.42561,-0.46541 -0.865,-0.91656 -1.31055,-1.36133 3.92731,-0.24947 7.95016,-0.51865 12.17969,-0.83203 7.90789,-0.95255 15.91289,-1.89359 22.69336,-3.61719 3.74709,-0.99903 7.15159,-2.11479 10.36523,-3.30469 l -5.71094,-24.44531 c -3.26696,1.09718 -6.41014,2.23228 -9.79492,3.28907 -5.7453,1.74972 -12.94895,2.67952 -20.0957,3.57226 -10.12025,1.19128 -20.63619,1.89139 -31.25391,2.32617 -8.88345,0.33996 -17.82927,0.28332 -26.65234,-0.18554 -5.16403,-0.25745 -9.79098,-1.07176 -14.49414,-1.7793 -4.43372,-0.6884 -8.87595,-1.37736 -13.51953,-1.89063 -3.26563,-0.48678 -6.68104,-0.60407 -10.20704,-0.54687 -2.50257,0.11598 -5.0278,0.34181 -7.19726,0.79492 -1.40826,0.29413 -1.88594,0.49189 -3.08203,0.87891 -1.93032,0.74962 -3.61924,1.60095 -4.45313,2.5625 -0.21389,0.24663 -0.48347,0.49502 -0.48047,0.75195 0.0936,8.35719 0.51278,16.7135 0.76953,25.07031 1.10317,0.8829 2.02549,1.79775 3.40821,2.63867 1.43296,0.87149 3.21564,1.66184 5.05469,2.4375 0.56728,0.22396 1.07574,0.46624 1.70117,0.67188 3.71913,1.22285 8.89579,2.18792 13.43554,3.01953 6.49002,1.23839 13.47576,2.12626 20.59375,2.85352 6.72633,0.69315 13.59816,1.17051 20.52344,1.5664 4.22338,0.19477 8.42618,0.41229 12.47656,0.84375 -2.18202,0.8408 -4.66206,1.9715 -7.48242,3.45313 -6.9222,2.25162 -15.01304,4.00426 -23.23242,5.66015 -10.06594,1.99746 -20.87997,3.48703 -31.875,4.78711 -10.91663,1.21017 -22.21791,1.91401 -33.55664,2.48828 -8.69675,0.42419 -17.47134,0.54779 -26.24609,0.55079 -2.60489,-0.0337 -5.3014,-0.0428 -8.09961,-0.0234 -2.79856,-0.0195 -5.49248,-0.0103 -8.09766,0.0234 -8.77564,-0.002 -17.55236,-0.12656 -26.25,-0.55079 -11.33872,-0.57427 -22.63806,-1.27811 -33.55469,-2.48828 -10.99503,-1.30008 -21.80906,-2.78965 -31.875,-4.78711 -8.21938,-1.65589 -16.30827,-3.40853 -23.23047,-5.66015 -2.82036,-1.48163 -5.30041,-2.61233 -7.48242,-3.45313 4.05016,-0.43141 8.24953,-0.64899 12.47266,-0.84375 6.92529,-0.39589 13.79711,-0.87325 20.52344,-1.5664 7.11799,-0.72726 14.10567,-1.61513 20.5957,-2.85352 4.53974,-0.83161 9.71446,-1.79668 13.43359,-3.01953 0.62543,-0.20564 1.1339,-0.44792 1.70117,-0.67188 1.83906,-0.77566 3.62369,-1.56601 5.05665,-2.4375 1.38272,-0.84092 2.30307,-1.75577 3.40625,-2.63867 0.25674,-8.35681 0.67387,-16.71312 0.76757,-25.07031 0.003,-0.25693 -0.26461,-0.50532 -0.47851,-0.75195 -0.83389,-0.96155 -2.5189,-1.81288 -4.44922,-2.5625 -1.19609,-0.38702 -1.67573,-0.58478 -3.08398,-0.87891 -2.16947,-0.45311 -4.69276,-0.67894 -7.19532,-0.79492 -3.526,-0.0572 -6.9414,0.0601 -10.20703,0.54687 -4.64358,0.51327 -9.08972,1.20223 -13.52344,1.89063 -4.70316,0.70754 -9.32815,1.52185 -14.49218,1.7793 -8.82307,0.46886 -17.7728,0.5255 -26.65625,0.18554 -10.61772,-0.43478 -21.13171,-1.13489 -31.25196,-2.32617 -7.14676,-0.89274 -14.3504,-1.82254 -20.0957,-3.57226 -3.38479,-1.05679 -6.52797,-2.19189 -9.79492,-3.28907 z m 291.32812,63.625 c -0.5308,0.84406 -0.95688,1.9007 -1.27539,3.16992 l -5.17187,21.61133 21.68164,23.5 c 0.85152,0.90991 1.68864,1.59271 2.50976,2.04883 l -20.12695,6.17969 c -0.21602,-0.61471 -0.69304,-1.40783 -1.42773,-2.38086 L 446,435.80078 l 5.67773,18.48242 c 0.36128,1.0877 0.79368,1.88083 1.30079,2.37891 l -18.25977,5.60742 c 0.14014,-0.69685 0.0556,-1.59622 -0.25586,-2.69922 l -14.09375,-45.89258 c -0.36893,-1.11259 -0.80327,-1.90572 -1.30273,-2.3789 l 18.25976,-5.60742 c -0.14014,0.69684 -0.0537,1.59818 0.25781,2.70117 l 6.22657,20.27539 5.46093,-23.86524 c 0.22266,-1.04909 0.29891,-1.99947 0.22852,-2.84961 l 12.8457,-3.94531 z m -202.05078,1.39649 26.46094,8.04687 c 4.28539,1.30324 7.30667,3.44675 9.06641,6.43164 1.70015,2.91234 1.90722,6.48711 0.61914,10.72266 -1.37902,4.53453 -3.72405,7.27763 -7.03516,8.23047 -1.03872,0.28293 -2.72695,0.46447 -5.06445,0.54297 2.55122,1.45634 4.34252,3.12937 5.37304,5.02148 1.47374,2.76182 1.60295,6.13665 0.39063,10.12305 -1.69724,5.58096 -4.82241,9.01253 -9.37695,10.29492 -2.91144,0.80219 -6.0242,0.69915 -9.3379,-0.30859 l -26.60937,-8.0918 c 0.52089,-0.54929 0.95787,-1.35615 1.30859,-2.41992 l 13.95508,-45.89258 c 0.32363,-1.15367 0.40721,-2.05455 0.25,-2.70117 z m 40.70313,11.72851 18.84375,2.88867 c -0.4036,0.57044 -0.7069,1.42017 -0.90625,2.54883 l -6.45703,42.125 11.00586,1.6875 c 1.75433,0.24258 3.01893,0.23819 3.79492,-0.0117 l -1.3086,8.53321 -33.05078,-5.06641 c 0.42933,-0.56649 0.744,-1.41431 0.94336,-2.54297 l 7.27344,-47.45312 c 0.14787,-1.13656 0.10126,-2.03991 -0.13867,-2.70899 z m 107.85937,0.93946 c 3.17412,0.0272 6.2602,0.42441 9.26172,1.1914 l 1.44336,11.35352 c -5.45919,-3.29631 -10.11365,-4.70019 -13.96289,-4.21094 -3.79757,0.48268 -6.56737,2.54157 -8.31055,6.17578 -1.74318,3.63422 -2.23825,8.41023 -1.48633,14.32617 0.44656,3.5134 1.13384,6.4434 2.0625,8.79297 0.92867,2.34958 2.17236,4.29188 3.73243,5.82617 1.23322,1.23457 2.67567,2.14075 4.32422,2.71875 1.67435,0.57472 3.32363,0.7596 4.95117,0.55274 3.61674,-0.4597 7.65513,-2.87694 12.11328,-7.25 l 1.39453,10.96679 c -4.89795,2.56515 -10.24057,4.21567 -16.02734,4.95118 -9.37768,1.19192 -16.65208,-0.27201 -21.82227,-4.39258 -5.08612,-4.07875 -8.21707,-10.74368 -9.39258,-19.99219 -0.79462,-6.25179 -0.35115,-11.3349 1.33008,-15.25 1.15402,-2.69305 2.87533,-5.15518 5.16406,-7.38867 2.24036,-2.20109 4.9063,-3.94496 7.99805,-5.23047 3.11759,-1.28879 6.92483,-2.21969 11.41992,-2.79101 1.9666,-0.24997 3.90217,-0.36596 5.80664,-0.34961 z m -133.02734,0.0195 -4.46485,14.68554 1.41993,0.4336 c 1.59456,0.48492 2.87405,0.25987 3.83789,-0.67188 0.98875,-0.92417 1.90943,-2.79397 2.76562,-5.60937 0.75012,-2.46659 0.94845,-4.36589 0.5918,-5.69922 -0.34908,-1.35824 -1.29706,-2.27242 -2.8418,-2.74219 l -1.30859,-0.39648 z m 72.17187,4.40039 15.11524,0.1875 c -0.029,0.23403 -0.044,0.39063 -0.0449,0.46875 -0.005,0.41663 0.16788,1.14916 0.51953,2.19531 l 16.54687,48.2168 c 0.42834,1.15128 0.97728,2.04431 1.64649,2.67773 l -20.54493,-0.25586 c 0.056,-0.31182 0.0847,-0.52084 0.0859,-0.625 0.007,-0.52079 -0.11511,-1.19863 -0.36523,-2.03515 l -3.38086,-10.86329 -15.03711,-0.18945 -3.88672,10.77344 c -0.32388,0.90748 -0.4886,1.58272 -0.49414,2.02539 -10e-4,0.10416 0.0351,0.31155 0.10937,0.625 l -9.64648,-0.11914 c 0.60673,-0.61746 1.12567,-1.49814 1.55664,-2.63867 l 17.35742,-47.79297 c 0.35024,-0.9332 0.52767,-1.62178 0.53321,-2.06446 10e-4,-0.10414 -0.0218,-0.29884 -0.0703,-0.58593 z m 2.56836,16.40039 -5.07617,15.36719 9.53125,0.11914 -4.45508,-15.48633 z m -81.38867,1.06054 -4.47656,14.72461 1.86719,0.56836 c 1.39524,0.42431 2.58327,0.18832 3.56445,-0.71093 0.98117,-0.89926 1.83706,-2.54566 2.56445,-4.9375 0.8562,-2.8154 1.15371,-4.91544 0.89453,-6.30078 -0.22668,-1.40269 -1.05054,-2.32007 -2.4707,-2.75196 l -1.94336,-0.5918 z"
       id="path4318"
       inkscape:export-xdpi="90"
       inkscape:export-ydpi="90"
       inkscape:connector-curvature="0" />
    <flowRoot
       xml:space="preserve"
       id="flowRoot4332"
       style="fill:black;stroke:none;stroke-opacity:1;stroke-width:1px;stroke-linejoin:miter;stroke-linecap:butt;fill-opacity:1;font-family:Sans;font-style:normal;font-weight:normal;font-size:17.5px;line-height:125%;letter-spacing:0px;word-spacing:0px"><flowRegion
         id="flowRegion4334"><rect
           id="rect4336"
           width="166.13725"
           height="235.67075"
           x="257.96393"
           y="361.27368" /></flowRegion><flowPara
         id="flowPara4338"></flowPara></flowRoot>    <flowRoot
       xml:space="preserve"
       id="flowRoot4340"
       style="fill:black;stroke:none;stroke-opacity:1;stroke-width:1px;stroke-linejoin:miter;stroke-linecap:butt;fill-opacity:1;font-family:Sans;font-style:normal;font-weight:normal;font-size:17.5px;line-height:125%;letter-spacing:0px;word-spacing:0px"><flowRegion
         id="flowRegion4342"><rect
           id="rect4344"
           width="184.7149"
           height="220.80862"
           x="239.38628"
           y="374.01263" /></flowRegion><flowPara
         id="flowPara4346"></flowPara></flowRoot>    <g
       style="font-style:normal;font-variant:normal;font-weight:normal;font-stretch:semi-condensed;font-size:35px;line-height:125%;font-family:'BellCent SubCap BT';-inkscape-font-specification:'BellCent SubCap BT Semi-Condensed';letter-spacing:0px;word-spacing:0px;fill:#ffffff;fill-opacity:1;stroke:none;stroke-width:1px;stroke-linecap:butt;stroke-linejoin:miter;stroke-opacity:1"
       id="text4364"
       transform="translate(-120,-270)">
      <path
         d="m 343.21988,776.5509 1.8457,0 q 0.58106,1.79444 1.91406,2.78565 1.33301,0.99121 3.16163,0.99121 1.99951,0 3.26416,-1.16211 1.28173,-1.1792 1.28173,-2.92236 0,-1.40137 -0.95703,-2.32422 -0.93994,-0.93994 -4.32373,-2.30713 -0.22217,-0.0855 -0.64941,-0.25635 -2.80274,-1.12793 -3.79395,-1.98242 -0.97412,-0.87158 -1.48681,-2.0166 -0.5127,-1.14502 -0.5127,-2.46094 0,-2.78564 1.91406,-4.5459 1.93116,-1.76025 5.02442,-1.76025 1.77734,0 3.43506,0.51269 1.6748,0.5127 3.14453,1.521 l 0,4.27246 -1.67481,0 q -0.63232,-1.94824 -1.86279,-2.92236 -1.23047,-0.99121 -3.00781,-0.99121 -1.65772,0 -2.76856,1.0083 -1.11084,0.99121 -1.11084,2.47802 0,2.58057 4.32373,4.15284 0.66651,0.23925 1.02539,0.37597 3.29834,1.23047 4.7168,2.85401 1.43555,1.62353 1.43555,4.06738 0,3.14453 -2.0166,5.07568 -2.01661,1.93116 -5.40039,1.93116 -1.82862,0 -3.55469,-0.52979 -1.72608,-0.5127 -3.3667,-1.53809 l 0,-4.30664 z"
         id="path4475"
         inkscape:connector-curvature="0" />
      <path
         d="m 367.94888,767.33948 q -2.0166,0 -3.12744,1.64062 -1.11084,1.64063 -1.11084,4.66553 0,3.31543 1.09375,5.05859 1.11084,1.72608 3.21289,1.72608 2.0166,0 3.14453,-1.72608 1.12793,-1.74316 1.12793,-4.92187 0,-3.16162 -1.11084,-4.80225 -1.09375,-1.64062 -3.22998,-1.64062 z m -7.24609,6.27197 q 0,-3.96484 1.96533,-6.34033 1.96533,-2.37549 5.24658,-2.37549 3.52051,0 5.45166,2.34131 1.93116,2.34131 1.93116,6.57959 0,4.28955 -1.93116,6.68213 -1.91406,2.39258 -5.34912,2.39258 -3.46924,0 -5.40039,-2.44385 -1.91406,-2.44385 -1.91406,-6.83594 z"
         id="path4477"
         inkscape:connector-curvature="0" />
      <path
         d="m 380.16812,767.40784 -2.66601,0 0,-2.0166 2.66601,0 0,-1.57227 q 0,-2.71729 0.99121,-3.74268 1.0083,-1.02539 3.48633,-1.02539 l 2.10205,0 0,2.34131 -0.92285,0 q -1.67481,0 -2.20459,0.44434 -0.5127,0.44433 -0.5127,2.46094 l 0,1.09375 3.17872,0 0,2.0166 -3.17872,0 0,14.98779 -2.93945,0 0,-14.98779 z"
         id="path4479"
         inkscape:connector-curvature="0" />
      <path
         d="m 395.42935,782.39563 q -3.17871,0 -3.93066,-0.73486 -0.73487,-0.73487 -0.73487,-3.8794 l 0,-10.37353 -2.97363,0 0,-2.0166 2.97363,0 0,-4.56299 2.90528,0 0,4.56299 3.84521,0 0,2.0166 -3.84521,0 0,10.51025 q 0,1.76025 0.44433,2.11914 0.44434,0.35889 2.11914,0.35889 l 1.28174,0 0,1.99951 -2.08496,0 z"
         id="path4481"
         inkscape:connector-curvature="0" />
      <path
         d="m 413.21988,774.20959 0,0.47852 -10.54443,0 q 0,2.83691 1.19628,4.25537 1.19629,1.41846 3.57178,1.41846 1.26465,0 2.34131,-0.44434 1.07666,-0.44433 2.23877,-1.46972 l 1.19629,0 0,2.90527 q -1.70899,0.8374 -3.09326,1.19629 -1.36719,0.37598 -2.71729,0.37598 -3.81103,0 -5.79345,-2.25586 -1.98243,-2.27295 -1.98243,-6.59668 0,-4.30664 1.93116,-6.7334 1.94824,-2.44385 5.31494,-2.44385 2.88818,0 4.61425,1.86279 1.72608,1.8628 1.72608,5.02442 l 0,2.42675 z m -2.83691,-1.96533 q 0,-2.854 -0.8545,-4.08447 -0.85449,-1.23047 -2.75146,-1.23047 -1.98242,0 -3.00781,1.43555 -1.0254,1.43555 -1.09375,4.28955 l 7.70752,0.0171 0,-0.42725 z"
         id="path4483"
         inkscape:connector-curvature="0" />
      <path
         d="m 417.11636,765.39124 2.97364,0 0,1.14501 0.29052,0.0684 q 1.0083,-0.90576 2.01661,-1.29882 1.02539,-0.41016 2.32421,-0.41016 2.47803,0 3.79395,1.62354 1.31592,1.62353 1.31592,4.71679 l 0,1.87988 0,9.27979 -2.90528,0 0,-10.32227 q 0,-2.70019 -0.70068,-3.70849 -0.68359,-1.02539 -2.34131,-1.02539 -0.93994,0 -1.86279,0.39306 -0.90576,0.39307 -1.96533,1.23047 l 0,13.43262 -2.93946,0 0,-17.00439 z"
         id="path4485"
         inkscape:connector-curvature="0" />
      <path
         d="m 433.40298,778.44788 1.50391,0 q 0.61524,1.07666 1.65772,1.65771 1.04248,0.58106 2.35839,0.58106 1.48682,0 2.39258,-0.75196 0.90576,-0.76904 0.90576,-1.98242 0,-1.91406 -3.84521,-3.12744 -0.20508,-0.0684 -0.29053,-0.10254 -2.40967,-0.76904 -3.50342,-1.91406 -1.07666,-1.16211 -1.07666,-2.93946 0,-2.20459 1.64063,-3.55468 1.65771,-1.3501 4.40918,-1.3501 1.14502,0 2.3584,0.25635 1.21338,0.25634 2.54638,0.75195 l 0,3.40088 -1.36718,0 q -0.6836,-1.24756 -1.62354,-1.8457 -0.93994,-0.59815 -2.22168,-0.59815 -1.1792,0 -1.99951,0.71777 -0.80322,0.71778 -0.80322,1.76026 0,1.09375 0.71777,1.74316 0.73486,0.63233 3.40088,1.36719 2.29004,0.6665 3.41797,1.91406 1.14502,1.24756 1.14502,3.05908 0,2.40967 -1.65772,3.91358 -1.65771,1.48682 -4.32373,1.48682 -1.77734,0 -3.22998,-0.3418 -1.45264,-0.3418 -2.51221,-0.99121 l 0,-3.11035 z"
         id="path4487"
         inkscape:connector-curvature="0" />
      <path
         d="m 465.75406,773.25256 q -3.64014,0.71778 -5.09277,1.67481 -1.45264,0.95703 -1.45264,2.5293 0,1.23046 0.88867,2.05078 0.88867,0.82031 2.22168,0.82031 0.87158,0 1.70898,-0.35889 0.83741,-0.37597 1.72608,-1.14502 l 0,-5.57129 z m 0,7.60498 q -0.95703,0.97413 -2.11914,1.46973 -1.14502,0.49561 -2.47803,0.49561 -2.23877,0 -3.64014,-1.43555 -1.40136,-1.45264 -1.40136,-3.75977 0,-2.42675 1.74316,-3.79394 1.74317,-1.38428 6.10108,-2.22168 l 1.79443,-0.30762 0,-1.43555 q 0,-1.19628 -0.90576,-1.86279 -0.88867,-0.6665 -2.49512,-0.6665 -1.09375,0 -2.08496,0.51269 -0.97412,0.49561 -1.79443,1.48682 l -1.40137,0 0,-3.40088 q 1.40137,-0.49561 2.64892,-0.73486 1.24756,-0.23926 2.49512,-0.23926 3.28125,0 4.85352,1.40137 1.58935,1.40136 1.58935,4.34082 l 0,11.68945 -2.90527,0 0,-1.53809 z"
         id="path4489"
         inkscape:connector-curvature="0" />
      <path
         d="m 473.51285,765.39124 2.97363,0 0,1.14501 0.29053,0.0684 q 1.0083,-0.90576 2.0166,-1.29882 1.02539,-0.41016 2.32422,-0.41016 2.47803,0 3.79394,1.62354 1.31592,1.62353 1.31592,4.71679 l 0,1.87988 0,9.27979 -2.90527,0 0,-10.32227 q 0,-2.70019 -0.70069,-3.70849 -0.68359,-1.02539 -2.3413,-1.02539 -0.93995,0 -1.8628,0.39306 -0.90576,0.39307 -1.96533,1.23047 l 0,13.43262 -2.93945,0 0,-17.00439 z"
         id="path4491"
         inkscape:connector-curvature="0" />
      <path
         d="m 500.78824,778.61877 0,-9.48486 q -0.95703,-0.87158 -1.8457,-1.29883 -0.87159,-0.42724 -1.76026,-0.42724 -1.99951,0 -3.00781,1.64062 -0.99121,1.62354 -0.99121,4.87061 0,3.17871 1.0083,4.81933 1.0083,1.62354 2.99072,1.62354 0.90576,0 1.79444,-0.42725 0.88867,-0.42724 1.81152,-1.31592 z m 2.90527,3.77686 -2.90527,0 0,-1.29883 -0.35889,-0.13672 q -0.95703,1.02539 -1.93115,1.48682 -0.95703,0.47852 -2.05078,0.47852 -2.8711,0 -4.59717,-2.42676 -1.70898,-2.44385 -1.70898,-6.61377 0,-4.11865 1.70898,-6.5625 1.70898,-2.46094 4.52881,-2.46094 1.11084,0 2.10205,0.47852 0.99121,0.46142 1.94824,1.45263 l 0.35889,-0.0855 0,-8.15185 2.90527,0 0,23.84033 z"
         id="path4493"
         inkscape:connector-curvature="0" />
      <path
         d="m 520.35611,761.64856 0,9.72412 1.57227,0 q 2.78564,0 4.25537,-1.28174 1.48681,-1.28174 1.48681,-3.6914 0,-2.1875 -1.5039,-3.46924 -1.48682,-1.28174 -4.03321,-1.28174 l -1.77734,0 z m -3.09326,-2.59766 5.57129,0 q 3.74267,0 5.91308,2.03369 2.17041,2.0337 2.17041,5.5542 0,3.45215 -2.06787,5.33204 -2.05078,1.87988 -5.81054,1.87988 l -2.68311,0 0,8.54492 -3.09326,0 0,-23.34473 z"
         id="path4495"
         inkscape:connector-curvature="0" />
      <path
         d="m 535.24136,765.39124 2.93946,0 0,0.6665 q 0,0.58105 -0.0342,1.07666 -0.0342,0.4956 -0.10254,0.93994 l 0.29053,0.22217 q 0.80322,-1.58936 2.03369,-2.23877 1.24756,-0.6665 3.41797,-0.6665 l 0.20507,0 0,3.41796 -1.46972,0 q -2.56348,0 -3.45215,0.8545 -0.88867,0.85449 -0.88867,3.28125 l 0,9.45068 -2.93946,0 0,-17.00439 z"
         id="path4497"
         inkscape:connector-curvature="0" />
      <path
         d="m 553.20279,767.33948 q -2.0166,0 -3.12744,1.64062 -1.11084,1.64063 -1.11084,4.66553 0,3.31543 1.09375,5.05859 1.11084,1.72608 3.21289,1.72608 2.0166,0 3.14453,-1.72608 1.12793,-1.74316 1.12793,-4.92187 0,-3.16162 -1.11084,-4.80225 -1.09375,-1.64062 -3.22998,-1.64062 z m -7.24609,6.27197 q 0,-3.96484 1.96533,-6.34033 1.96533,-2.37549 5.24658,-2.37549 3.52051,0 5.45166,2.34131 1.93115,2.34131 1.93115,6.57959 0,4.28955 -1.93115,6.68213 -1.91406,2.39258 -5.34912,2.39258 -3.46924,0 -5.40039,-2.44385 -1.91406,-2.44385 -1.91406,-6.83594 z"
         id="path4499"
         inkscape:connector-curvature="0" />
      <path
         d="m 570.42935,782.39563 q -3.17871,0 -3.93066,-0.73486 -0.73487,-0.73487 -0.73487,-3.8794 l 0,-10.37353 -2.97363,0 0,-2.0166 2.97363,0 0,-4.56299 2.90528,0 0,4.56299 3.84521,0 0,2.0166 -3.84521,0 0,10.51025 q 0,1.76025 0.44433,2.11914 0.44434,0.35889 2.11914,0.35889 l 1.28174,0 0,1.99951 -2.08496,0 z"
         id="path4501"
         inkscape:connector-curvature="0" />
      <path
         d="m 588.21988,774.20959 0,0.47852 -10.54443,0 q 0,2.83691 1.19628,4.25537 1.19629,1.41846 3.57178,1.41846 1.26465,0 2.34131,-0.44434 1.07666,-0.44433 2.23877,-1.46972 l 1.19629,0 0,2.90527 q -1.70899,0.8374 -3.09326,1.19629 -1.36719,0.37598 -2.71729,0.37598 -3.81103,0 -5.79345,-2.25586 -1.98243,-2.27295 -1.98243,-6.59668 0,-4.30664 1.93116,-6.7334 1.94824,-2.44385 5.31494,-2.44385 2.88818,0 4.61425,1.86279 1.72608,1.8628 1.72608,5.02442 l 0,2.42675 z m -2.83691,-1.96533 q 0,-2.854 -0.8545,-4.08447 -0.85449,-1.23047 -2.75146,-1.23047 -1.98242,0 -3.00781,1.43555 -1.0254,1.43555 -1.09375,4.28955 l 7.70752,0.0171 0,-0.42725 z"
         id="path4503"
         inkscape:connector-curvature="0" />
      <path
         d="m 603.80582,777.81555 0,3.34961 q -1.31592,0.87158 -2.56348,1.28174 -1.24756,0.41016 -2.54639,0.41016 -3.45215,0 -5.50293,-2.44385 -2.05078,-2.44385 -2.05078,-6.63086 0,-3.99902 2.05078,-6.42578 2.06787,-2.42676 5.43457,-2.42676 1.16211,0 2.3584,0.35889 1.19629,0.35888 2.81983,1.21338 l 0,3.40087 -1.36719,0 q -0.80322,-1.333 -1.72608,-1.91406 -0.90576,-0.58105 -2.15332,-0.58105 -2.06787,0 -3.24707,1.69189 -1.16211,1.6919 -1.16211,4.68262 0,3.04199 1.14502,4.75098 1.16211,1.69189 3.19581,1.69189 1.24755,0 2.22167,-0.58105 0.97413,-0.59815 1.77735,-1.82862 l 1.31592,0 z"
         id="path4505"
         inkscape:connector-curvature="0" />
      <path
         d="m 613.22232,782.39563 q -3.17871,0 -3.93066,-0.73486 -0.73487,-0.73487 -0.73487,-3.8794 l 0,-10.37353 -2.97363,0 0,-2.0166 2.97363,0 0,-4.56299 2.90528,0 0,4.56299 3.84521,0 0,2.0166 -3.84521,0 0,10.51025 q 0,1.76025 0.44433,2.11914 0.44434,0.35889 2.11914,0.35889 l 1.28174,0 0,1.99951 -2.08496,0 z"
         id="path4507"
         inkscape:connector-curvature="0" />
      <path
         d="m 617.15298,778.44788 1.50391,0 q 0.61524,1.07666 1.65772,1.65771 1.04248,0.58106 2.35839,0.58106 1.48682,0 2.39258,-0.75196 0.90576,-0.76904 0.90576,-1.98242 0,-1.91406 -3.84521,-3.12744 -0.20508,-0.0684 -0.29053,-0.10254 -2.40967,-0.76904 -3.50342,-1.91406 -1.07666,-1.16211 -1.07666,-2.93946 0,-2.20459 1.64063,-3.55468 1.65771,-1.3501 4.40918,-1.3501 1.14502,0 2.3584,0.25635 1.21338,0.25634 2.54638,0.75195 l 0,3.40088 -1.36718,0 q -0.6836,-1.24756 -1.62354,-1.8457 -0.93994,-0.59815 -2.22168,-0.59815 -1.1792,0 -1.99951,0.71777 -0.80322,0.71778 -0.80322,1.76026 0,1.09375 0.71777,1.74316 0.73486,0.63233 3.40088,1.36719 2.29004,0.6665 3.41797,1.91406 1.14502,1.24756 1.14502,3.05908 0,2.40967 -1.65772,3.91358 -1.65771,1.48682 -4.32373,1.48682 -1.77734,0 -3.22998,-0.3418 -1.45264,-0.3418 -2.51221,-0.99121 l 0,-3.11035 z"
         id="path4509"
         inkscape:connector-curvature="0" />
    </g>
    <g
       style="font-style:normal;font-variant:normal;font-weight:normal;font-stretch:semi-condensed;font-size:21.1112175px;line-height:125%;font-family:'BellCent SubCap BT';-inkscape-font-specification:'BellCent SubCap BT Semi-Condensed';letter-spacing:0px;word-spacing:0px;fill:#ffffff;fill-opacity:1;stroke:none;stroke-width:1px;stroke-linecap:butt;stroke-linejoin:miter;stroke-opacity:1"
       id="text4368"
       transform="translate(-120,-270)">
      <path
         d="m 401.79907,797.68183 q -0.37109,-0.80404 -0.67003,-1.73178 -0.29894,-0.93804 -0.51541,-1.97917 l -0.36079,0 0,12.51417 -1.81424,0 0,-14.08102 2.97907,0 3.64911,7.93732 q 0.37109,0.78343 0.67003,1.71117 0.29894,0.92773 0.51541,1.97917 l 0.36079,0 0,-11.62766 1.81424,0 0,14.08102 -2.55643,0 -4.07175,-8.80322 z"
         id="path4444"
         inkscape:connector-curvature="0" />
      <path
         d="m 411.34448,792.40403 8.45273,0 0,1.47407 -6.58695,0 0,4.64901 5.98907,0 0,1.53592 -5.98907,0 0,4.85517 6.93743,0 0,1.56685 -8.80321,0 0,-14.08102 z"
         id="path4446"
         inkscape:connector-curvature="0" />
      <path
         d="m 424.79669,794.01211 -4.05112,0 0,-1.60808 9.95773,0 0,1.60808 -4.05113,0 0,12.47294 -1.85548,0 0,-12.47294 z"
         id="path4448"
         inkscape:connector-curvature="0" />
      <path
         d="m 436.72329,792.40403 2.1338,0 2.44305,12.16369 0.25771,0 2.45335,-12.16369 2.17503,0 2.40182,12.16369 0.2577,0 2.46366,-12.16369 2.11319,0 -3.46356,14.08102 -2.23688,0 -2.01011,-8.84445 q -0.15462,-0.70096 -0.27832,-1.46377 -0.11339,-0.7628 -0.20616,-1.639 l -0.26802,0 q -0.10308,0.97928 -0.21647,1.74209 -0.11339,0.7628 -0.24739,1.36068 l -2.07196,8.84445 -2.27811,0 -3.42233,-14.08102 z"
         id="path4450"
         inkscape:connector-curvature="0" />
      <path
         d="m 458.23653,794.01211 -4.05112,0 0,-1.60808 9.95773,0 0,1.60808 -4.05113,0 0,12.47294 -1.85548,0 0,-12.47294 z"
         id="path4452"
         inkscape:connector-curvature="0" />
      <path
         d="m 465.95738,804.14508 2.24719,0 0,2.33997 -2.24719,0 0,-2.33997 z"
         id="path4454"
         inkscape:connector-curvature="0" />
      <path
         d="m 476.20374,803.96984 0.64942,0 q 0.76281,0.77312 1.37099,1.08236 0.61849,0.30925 1.32976,0.30925 1.23699,0 2.04103,-0.91743 0.81434,-0.92774 0.81434,-2.37089 0,-1.32976 -0.70095,-2.12349 -0.70096,-0.79373 -1.8761,-0.79373 -0.37109,0 -0.74219,0.1237 -0.36079,0.12369 -0.80404,0.41232 l -1.43284,0 0,-7.2879 7.26729,0 0,1.77301 -4.03051,0 q -0.48449,0 -0.80404,-0.11339 -0.31956,-0.1237 -0.63911,-0.39171 l -0.36079,0.22678 q 0.1237,0.23709 0.17524,0.48449 0.0619,0.23708 0.0619,0.68034 l 0,1.5153 q 0,0.36079 -0.0619,0.63911 -0.0515,0.26802 -0.17524,0.54634 l 0.36079,0.21647 q 0.46387,-0.17524 0.8865,-0.2577 0.43295,-0.0825 0.82466,-0.0825 1.71116,0 2.86568,1.22668 1.16483,1.21637 1.16483,3.08215 0,2.22658 -1.28852,3.5151 -1.27822,1.27822 -3.5048,1.27822 -0.8865,0 -1.72147,-0.2577 -0.82466,-0.2474 -1.66993,-0.78343 l 0,-1.73178 z"
         id="path4456"
         inkscape:connector-curvature="0" />
      <path
         d="m 497.29435,805.27899 q 1.7524,0 2.68013,-1.41223 0.92774,-1.41222 0.92774,-4.11298 0,-3.10277 -0.89681,-4.60777 -0.88651,-1.5153 -2.71106,-1.5153 -1.78332,0 -2.71106,1.47407 -0.92774,1.47407 -0.92774,4.32945 0,2.86568 0.92774,4.36037 0.92774,1.48439 2.71106,1.48439 z m 5.54582,-5.90661 q 0,3.65942 -1.41223,5.53551 -1.40191,1.87609 -4.13359,1.87609 -2.71106,0 -4.1439,-1.8864 -1.43284,-1.89671 -1.43284,-5.46335 0,-3.56664 1.42253,-5.43243 1.43284,-1.87609 4.15421,-1.87609 2.71106,0 4.12328,1.85548 1.42254,1.84517 1.42254,5.39119 z"
         id="path4458"
         inkscape:connector-curvature="0" />
      <path
         d="m 504.2627,804.96974 7.11266,-11.07102 -0.1237,-0.16493 q -0.39171,0.0928 -0.81435,0.13401 -0.42263,0.0309 -1.14421,0.0309 l -4.66962,0 0,-1.49469 8.88568,0 0,1.49469 -7.13328,11.07102 0.10308,0.20616 q 0.43295,-0.11339 0.90712,-0.15462 0.48449,-0.0515 1.39161,-0.0515 l 4.98918,0 0,1.51531 -9.50417,0 0,-1.51531 z"
         id="path4460"
         inkscape:connector-curvature="0" />
      <path
         d="m 525.71408,809.38165 0,0.32987 -1.81424,0 q -1.46377,-1.93795 -2.17503,-4.08206 -0.70096,-2.15441 -0.70096,-4.72116 0,-2.56674 0.70096,-4.72116 0.71126,-2.16472 2.17503,-4.08205 l 1.81424,0 0,0.34017 q -1.26791,1.46377 -1.99979,3.72127 -0.72157,2.24719 -0.72157,4.74177 0,2.48428 0.72157,4.74178 0.73188,2.24719 1.99979,3.73157 z"
         id="path4462"
         inkscape:connector-curvature="0" />
      <path
         d="m 527.80666,804.99036 3.28832,0 0,-10.97825 -3.28832,0 0,-1.60808 5.33965,0 0,12.58633 2.84507,0 0,1.49469 -8.18472,0 0,-1.49469 z"
         id="path4464"
         inkscape:connector-curvature="0" />
      <path
         d="m 545.74294,799.43423 q 0,0.35048 -0.0721,0.72157 -0.0722,0.36079 -0.21648,0.7525 l 0.28863,0.20617 q 0.19586,-0.10308 0.38141,-0.15463 0.18554,-0.0515 0.46387,-0.0515 l 0.49479,0 0,1.44315 -0.49479,0 q -0.18555,0 -0.39172,-0.0412 -0.20616,-0.0412 -0.45356,-0.13401 l -0.28863,0.17524 q 0.15463,0.32987 0.21648,0.69065 0.0721,0.35048 0.0721,0.76281 l 0,2.68014 -1.89671,0 0,-3.04093 q 0,-0.35048 0.0619,-0.59787 0.0618,-0.2474 0.19586,-0.4948 l -0.27832,-0.19585 q -0.45357,0.10308 -0.91744,0.15462 -0.45356,0.0412 -1.02051,0.0412 l -0.55664,0 -3.60788,0 0,-1.71116 5.27781,-8.23626 2.74198,0 0,7.0302 z m -1.89671,1.73178 0.18555,-0.2474 q -0.0928,-0.28863 -0.14432,-0.57726 -0.0412,-0.29894 -0.0412,-0.64942 l 0,-0.17523 0,-2.99969 q 0,-0.64942 0.0412,-1.32976 0.0516,-0.69065 0.14432,-1.43285 l -0.18555,0 q -0.2577,0.78343 -0.86589,1.70086 l -0.0412,0.0722 -2.44305,3.88619 q -0.0928,0.14432 -0.39171,0.50511 -0.28863,0.36078 -0.83496,0.98958 l 0.20616,0.25771 q 0.54634,-0.13401 0.92774,-0.19586 0.3814,-0.0618 0.61849,-0.0618 l 1.51531,0 q 0.2577,0 0.58757,0.0722 0.32986,0.0619 0.72157,0.18555 z"
         id="path4466"
         inkscape:connector-curvature="0" />
      <path
         d="m 552.94838,793.65132 q -1.27822,0 -1.81425,1.11329 -0.52572,1.11329 -0.52572,3.92743 0,2.43274 0.0618,3.35017 0.0619,0.91743 0.20617,1.52561 0.17524,0.73189 0.78342,1.21637 0.60819,0.47418 1.35038,0.47418 1.30914,0 1.85547,-1.10298 0.54634,-1.11329 0.54634,-4.0202 0,-4.30883 -0.52572,-5.3912 -0.52572,-1.09267 -1.93794,-1.09267 z m -4.32945,5.31904 q 0,-3.43263 1.09267,-5.1438 1.09267,-1.72147 3.27801,-1.72147 2.27811,0 3.33986,1.77301 1.07205,1.77302 1.07205,5.59736 0,3.87589 -1.05143,5.59736 -1.04113,1.71116 -3.3811,1.71116 -2.33996,0 -3.35017,-1.77301 -0.99989,-1.77301 -0.99989,-6.04061 z"
         id="path4468"
         inkscape:connector-curvature="0" />
      <path
         d="m 567.36957,796.22838 0,8.26718 q 0,1.61839 -0.12369,2.30904 -0.11339,0.70096 -0.39172,1.22668 -0.41232,0.77311 -1.40191,1.22668 -0.98959,0.45356 -2.26781,0.45356 -0.94835,0 -1.94825,-0.2474 -0.98959,-0.23709 -1.91733,-0.70096 l 0,-2.11318 0.74219,0 q 0.6288,0.78342 1.36069,1.12359 0.74219,0.34017 1.82455,0.34017 1.2576,0 1.82455,-0.70095 0.56696,-0.70096 0.56696,-2.2575 0,-0.29894 -0.0103,-0.44326 0,-0.15462 -0.0206,-0.29893 l -0.18555,-0.0206 q -0.58757,0.51541 -1.18544,0.76281 -0.58757,0.23709 -1.2576,0.23709 -1.70086,0 -2.73168,-1.27822 -1.03082,-1.27822 -1.03082,-3.41202 0,-2.20596 1.02051,-3.48418 1.03082,-1.28852 2.7626,-1.28852 0.68034,0 1.2473,0.24739 0.57726,0.23709 1.15452,0.76281 l 0.21647,-0.0619 0,-0.64941 1.75239,0 z m -1.75239,1.93794 q -0.55664,-0.46387 -1.08236,-0.68034 -0.52572,-0.22678 -1.09267,-0.22678 -1.16483,0 -1.79363,0.87619 -0.6185,0.8762 -0.6185,2.52552 0,1.66993 0.60819,2.53582 0.61849,0.85558 1.80394,0.85558 0.54633,0 1.07205,-0.21647 0.53603,-0.22678 1.10298,-0.69065 l 0,-4.97887 z"
         id="path4470"
         inkscape:connector-curvature="0" />
      <path
         d="m 569.75077,792.46588 0,-0.34017 1.79362,0 q 1.47408,1.96887 2.17504,4.11297 0.70096,2.14411 0.70096,4.69024 0,2.55644 -0.70096,4.70054 -0.70096,2.14411 -2.17504,4.08206 l -1.79362,0 0,-0.32987 q 1.26791,-1.48438 1.97917,-3.72126 0.72158,-2.23688 0.72158,-4.73147 0,-2.48428 -0.72158,-4.72116 -0.71126,-2.24719 -1.97917,-3.74188 z"
         id="path4472"
         inkscape:connector-curvature="0" />
    </g>
  </g>
</svg>
